<svg xmlns="http://www.w3.org/2000/svg" width="596" height="581" viewBox="0 0 596 581" fill="none"><path d="M294.228 580.251C454.086 580.251 583.676 509.777 583.676 422.843C583.676 335.909 454.086 265.435 294.228 265.435C134.371 265.435 4.78125 335.909 4.78125 422.843C4.78125 509.777 134.371 580.251 294.228 580.251Z" fill="#F5F5F5"></path><path d="M294.228 414.602C318.314 414.602 337.839 403.326 337.839 389.415C337.839 375.505 318.314 364.228 294.228 364.228C270.142 364.228 250.616 375.505 250.616 389.415C250.616 403.326 270.142 414.602 294.228 414.602Z" fill="#E0E0E0"></path><path d="M456.87 481.911C494.945 481.911 525.811 464.091 525.811 442.109C525.811 420.127 494.945 402.307 456.87 402.307C418.795 402.307 387.929 420.127 387.929 442.109C387.929 464.091 418.795 481.911 456.87 481.911Z" fill="#E0E0E0"></path><path d="M118.564 486.213C156.64 486.213 187.506 468.393 187.506 446.411C187.506 424.428 156.64 406.608 118.564 406.608C80.4891 406.608 49.623 424.428 49.623 446.411C49.623 468.393 80.4891 486.213 118.564 486.213Z" fill="#E0E0E0"></path><path d="M559.835 413.825L546.814 408.5C545.178 397.245 544.234 385.899 543.989 374.528C543.989 353.254 557.244 327.237 574.061 331.59C590.879 335.944 569.319 359.745 565.821 378.13C562.323 396.515 559.835 413.825 559.835 413.825Z" fill="#048DA9"></path><path opacity="0.3" d="M559.835 413.825L546.814 408.5C545.178 397.245 544.234 385.899 543.989 374.528C543.989 353.254 557.244 327.237 574.061 331.59C590.879 335.944 569.319 359.745 565.821 378.13C562.323 396.515 559.835 413.825 559.835 413.825Z" fill="black"></path><path d="M553.525 412.18C553.668 412.16 553.797 412.085 553.884 411.971C553.972 411.857 554.01 411.713 553.992 411.571C547.786 364.927 568.762 339.014 568.97 338.794C569.062 338.683 569.107 338.539 569.094 338.394C569.08 338.249 569.01 338.116 568.898 338.023C568.787 337.931 568.643 337.886 568.498 337.899C568.353 337.913 568.22 337.983 568.127 338.095C567.92 338.354 546.633 364.578 552.904 411.713C552.913 411.785 552.937 411.854 552.973 411.917C553.01 411.979 553.059 412.034 553.117 412.077C553.174 412.12 553.24 412.152 553.311 412.17C553.381 412.187 553.454 412.191 553.525 412.18Z" fill="white"></path><path d="M566.521 416.935L559.719 413.851C557.682 403.371 557.991 392.57 560.625 382.224C564.992 365.459 579.529 355.119 586.849 356.83C595.802 358.916 596.67 367.195 594.053 372.96C590.931 379.788 569.397 398.277 566.521 416.935Z" fill="#048DA9"></path><path opacity="0.1" d="M566.521 416.935L559.719 413.851C557.682 403.371 557.991 392.57 560.625 382.224C564.992 365.459 579.529 355.119 586.849 356.83C595.802 358.916 596.67 367.195 594.053 372.96C590.931 379.788 569.397 398.277 566.521 416.935Z" fill="black"></path><path d="M562.984 415.859C563.13 415.843 563.263 415.77 563.355 415.656C563.447 415.542 563.491 415.396 563.476 415.25C560.419 385.658 586.241 362.906 586.513 362.686C586.611 362.58 586.666 362.442 586.666 362.297C586.666 362.153 586.611 362.014 586.513 361.909C586.462 361.857 586.402 361.816 586.335 361.788C586.268 361.76 586.197 361.745 586.124 361.745C586.052 361.745 585.98 361.76 585.913 361.788C585.847 361.816 585.786 361.857 585.736 361.909C585.464 362.142 559.227 385.23 562.323 415.419C562.355 415.564 562.441 415.691 562.564 415.773C562.688 415.855 562.838 415.886 562.984 415.859Z" fill="white"></path><path d="M42.8734 401.905L51.8134 396.8C51.8134 396.8 56.089 373.207 52.8887 352.917C48.3799 324.413 28.9582 314.553 21.9099 317.39C14.8616 320.228 13.2031 328.675 25.9393 345.156C33.4541 354.873 43.1196 375.435 42.8734 401.905Z" fill="#048DA9"></path><g opacity="0.15"><path d="M42.8724 401.905L51.8124 396.8C51.8124 396.8 56.088 373.207 52.8878 352.917C48.3789 324.413 28.9572 314.553 21.9089 317.39C14.8606 320.228 13.2021 328.675 25.9383 345.156C33.4531 354.873 43.1186 375.435 42.8724 401.905Z" fill="black"></path></g><path d="M46.1114 390.581H46.0208C45.9387 390.57 45.8597 390.543 45.7884 390.501C45.717 390.459 45.6548 390.403 45.6053 390.337C45.5559 390.27 45.5201 390.195 45.5002 390.114C45.4804 390.034 45.4767 389.95 45.4895 389.869C49.1692 363.165 38.4412 333.91 26.3658 322.119C26.2908 322.065 26.2285 321.995 26.183 321.914C26.1374 321.833 26.1098 321.743 26.1019 321.651C26.0941 321.558 26.1062 321.465 26.1374 321.378C26.1686 321.291 26.2182 321.211 26.2829 321.144C26.3475 321.078 26.4257 321.026 26.5122 320.992C26.5986 320.959 26.6913 320.944 26.7839 320.949C26.8765 320.954 26.9669 320.979 27.0491 321.022C27.1312 321.066 27.203 321.126 27.2598 321.199C39.5425 333.145 50.4907 362.945 46.7593 390.024C46.7373 390.18 46.6594 390.322 46.5402 390.425C46.421 390.527 46.2686 390.583 46.1114 390.581Z" fill="white"></path><path d="M18.1002 416.222C16.688 417.025 13.7857 415.263 12.6715 414.512C10.7602 413.194 9.21713 411.41 8.18853 409.329C7.03984 406.979 6.65044 404.331 7.07428 401.75C7.29857 400.386 7.61896 399.039 8.03305 397.72L9.16026 393.833C9.60436 392.588 9.7981 391.267 9.73035 389.946C9.39348 387.264 7.00949 385.399 4.85872 383.779C2.46178 381.991 -0.0129058 379.633 5.06566e-05 376.407C0.167225 373.907 1.16609 371.536 2.83752 369.67C4.36638 367.713 6.19324 365.99 7.59253 363.93C8.68935 362.484 9.25238 360.703 9.18618 358.89C9.03776 357.786 8.66755 356.724 8.09784 355.767C6.78711 353.775 5.64306 351.677 4.67733 349.496C3.88699 347.242 4.0036 344.443 5.76567 342.824C6.54982 342.238 7.44317 341.814 8.39324 341.579C9.34331 341.343 10.3309 341.299 11.2981 341.45C13.1378 341.667 14.9072 342.287 16.4807 343.264C21.5985 346.102 24.5137 352.165 29.9424 354.355C32.0918 355.025 34.2815 355.557 36.4984 355.949C37.6111 356.155 38.6681 356.592 39.601 357.233C40.5339 357.874 41.322 358.703 41.9142 359.667C43.9095 363.645 40.2169 368.542 41.6162 372.766C42.9118 376.498 46.4878 377.949 48.522 381.304C49.3559 382.788 49.6919 384.5 49.4808 386.189C49.2999 389.046 48.6019 391.847 47.4207 394.455C46.0916 397.048 44.5715 399.538 42.873 401.905C42.7952 401.996 18.3205 416.067 18.1002 416.222Z" fill="#048DA9"></path><path d="M32.5977 408.5C32.5126 408.497 32.429 408.477 32.3516 408.441C32.2743 408.405 32.2048 408.355 32.147 408.292C32.0893 408.229 32.0444 408.156 32.015 408.076C31.9856 407.996 31.9723 407.911 31.9758 407.826C33.0252 382.561 21.1182 354.705 12.4633 346.542C12.3454 346.423 12.2793 346.263 12.2793 346.095C12.2793 345.928 12.3454 345.767 12.4633 345.648C12.5844 345.529 12.7472 345.463 12.9168 345.463C13.0864 345.463 13.2492 345.529 13.3703 345.648C22.1418 353.876 34.3079 382.25 33.2325 407.891C33.2258 408.055 33.156 408.21 33.0377 408.323C32.9193 408.437 32.7616 408.5 32.5977 408.5Z" fill="white"></path><path d="M28.8152 378.635H28.6209C22.6344 376.989 16.4876 375.994 10.2875 375.668C10.1157 375.668 9.95088 375.6 9.82939 375.479C9.7079 375.357 9.63965 375.192 9.63965 375.021C9.63965 374.849 9.7079 374.684 9.82939 374.562C9.95088 374.441 10.1157 374.373 10.2875 374.373C16.5975 374.701 22.8533 375.713 28.9448 377.392C29.0248 377.415 29.0993 377.455 29.1641 377.507C29.2289 377.56 29.2827 377.625 29.3224 377.698C29.3621 377.771 29.387 377.852 29.3956 377.935C29.4041 378.018 29.3962 378.102 29.3723 378.182C29.3346 378.304 29.2615 378.412 29.1624 378.493C29.0632 378.574 28.9424 378.623 28.8152 378.635Z" fill="white"></path><path d="M490.945 433.895L478.87 432.508L475.747 408.176L490.504 412.556L490.945 433.895Z" fill="#B16668"></path><path d="M464.488 453.744C464.313 454.223 464.242 454.734 464.277 455.243C464.313 455.752 464.455 456.248 464.695 456.698C465.991 458.201 469.333 459.963 473.894 460.287C478.26 460.598 482.147 460.015 484.7 458.395C485.81 457.822 486.76 456.982 487.465 455.951C488.171 454.92 488.61 453.73 488.742 452.487C488.988 450.013 488.742 447.616 489.895 445.711C491.048 443.806 492.72 441.954 493.096 440.995C493.544 439.34 493.544 437.596 493.096 435.942L464.488 453.744Z" fill="#263238"></path><path d="M476.421 432.081C476.382 433.02 476.212 433.949 475.916 434.841C475.248 436.759 474.352 438.591 473.247 440.295C472.704 441.201 472.098 442.067 471.433 442.887C470.137 444.454 468.479 445.75 467.079 447.253C465.595 448.67 464.643 450.555 464.384 452.591C464.203 456.011 469.645 457.177 472.508 457.683C475.596 458.222 478.766 458.063 481.785 457.216C483.37 456.804 484.802 455.942 485.91 454.736C487.018 453.529 487.754 452.029 488.03 450.414C488.198 449.455 488.134 448.484 488.25 447.538C488.627 445.354 489.54 443.297 490.906 441.552C491.7 440.545 492.382 439.454 492.94 438.3C493.834 436.188 493.122 433.804 492.552 431.705C492.059 429.878 491.463 427.818 490.816 427.961C490.816 428.906 490.815 429.036 490.181 429.671C489.546 430.306 489.3 431.705 488.393 432.418C488.682 431.628 488.895 430.812 489.028 429.982C489.084 429.649 489.015 429.308 488.833 429.023C488.533 428.754 488.173 428.559 487.784 428.453C486.436 428.002 485.047 427.685 483.638 427.507C481.713 427.287 479.77 427.287 477.846 427.507C477.445 427.579 477.083 427.79 476.823 428.103C476.589 428.448 476.463 428.853 476.46 429.269C476.395 429.762 476.447 431.174 476.421 432.081Z" fill="#455A64"></path><path d="M472.78 441.021C474.075 440.062 478.649 440.049 480.204 440.218C481.789 440.353 483.313 440.888 484.635 441.772C484.829 441.91 485.065 441.975 485.302 441.956C485.539 441.937 485.761 441.836 485.931 441.669C486.029 441.571 486.105 441.454 486.153 441.325C486.202 441.195 486.222 441.057 486.212 440.919C486.202 440.781 486.163 440.647 486.096 440.526C486.03 440.405 485.938 440.3 485.827 440.218C484.375 439.146 482.651 438.504 480.852 438.365C478.607 438.2 476.351 438.331 474.14 438.753C474.14 438.753 472.404 439.881 472.78 441.021Z" fill="#F5F5F5"></path><path d="M469.853 444.571C471.459 443.625 476.331 443.755 477.899 443.923C479.452 444.082 480.937 444.65 482.2 445.569C482.395 445.704 482.63 445.768 482.866 445.749C483.103 445.73 483.325 445.63 483.496 445.465C483.594 445.368 483.67 445.25 483.718 445.121C483.767 444.992 483.787 444.853 483.777 444.716C483.767 444.578 483.728 444.444 483.661 444.323C483.595 444.201 483.503 444.096 483.392 444.014C481.267 442.913 478.948 442.235 476.564 442.018C472.677 441.746 471.731 442.524 471.731 442.524C471.285 442.703 470.885 442.981 470.56 443.335C470.235 443.689 469.993 444.111 469.853 444.571Z" fill="#F5F5F5"></path><path d="M482.381 434.698C480.189 434.447 477.97 434.583 475.825 435.1C475.151 435.475 474.698 436.551 475.138 436.823C477.096 436.295 479.127 436.093 481.15 436.227C482.587 436.371 483.988 436.756 485.296 437.367C485.633 437.522 486.022 437.717 486.359 437.911C486.467 437.98 486.589 438.025 486.716 438.042C486.843 438.06 486.973 438.05 487.095 438.013C487.218 437.976 487.332 437.913 487.428 437.829C487.525 437.744 487.602 437.64 487.654 437.522C487.747 437.331 487.765 437.113 487.705 436.909C487.645 436.706 487.511 436.532 487.331 436.421C485.823 435.5 484.135 434.912 482.381 434.698Z" fill="#F5F5F5"></path><path d="M445.922 422.83L434.442 419.63V396.425L448.682 397.046L445.922 422.83Z" fill="#B16668"></path><path d="M410.188 435.255C409.864 436.256 409.924 437.341 410.357 438.3C410.784 439.181 415.435 441.811 421.706 441.384C426.352 441.05 430.824 439.485 434.663 436.849C437.047 435.268 439.534 434.97 442.644 434.802C445.754 434.633 449.822 433.066 450.509 431.614C450.858 430.315 450.822 428.942 450.405 427.663L410.188 435.255Z" fill="#263238"></path><path d="M435.453 415.691L434.961 415.587C434.688 415.523 434.404 415.523 434.132 415.587C433.83 415.686 433.562 415.866 433.354 416.106C432.743 416.894 432.209 417.74 431.761 418.632C430.465 420.77 427.679 422.519 424.674 424.164C422.626 425.266 420.618 426.121 418.506 427.067C416.394 428.013 413.479 428.634 411.795 429.775C409.333 431.433 409.009 435.592 411.795 437.238C414.205 438.663 420.579 440.205 427.252 438.313C430.88 437.276 434.922 433.402 439.69 433.027C442.722 432.781 448.462 431.938 450.418 429.632C451.144 428.609 450.172 425.369 449.382 422.571C448.513 419.513 447.697 414.797 446.687 415.017C446.695 415.236 446.652 415.453 446.559 415.652C446.467 415.85 446.328 416.023 446.155 416.157C445.78 416.546 445.274 416.792 444.86 417.142C444.152 417.838 443.581 418.66 443.175 419.565C443.011 419.968 442.707 420.299 442.32 420.498C441.802 420.679 441.426 420.368 441.025 420.161C440.455 419.9 439.811 419.854 439.211 420.031C439.273 419.424 439.382 418.822 439.535 418.23C439.592 418.045 439.592 417.846 439.535 417.66C439.461 417.472 439.323 417.316 439.146 417.22C438.036 416.458 436.778 415.937 435.453 415.691Z" fill="#455A64"></path><path d="M427.55 422.467C427.766 422.048 428.086 421.69 428.477 421.428C428.869 421.165 429.321 421.006 429.791 420.964C431.165 420.705 433.6 421.729 435.116 422.972C435.261 423.088 435.375 423.237 435.448 423.407C435.521 423.577 435.552 423.762 435.536 423.947C435.521 424.131 435.46 424.309 435.36 424.464C435.26 424.62 435.123 424.748 434.961 424.838C434.757 424.953 434.523 425.002 434.29 424.976C434.058 424.951 433.839 424.852 433.665 424.696C431.993 423.188 429.8 422.389 427.55 422.467Z" fill="#F5F5F5"></path><path d="M423.261 424.864C423.561 424.439 423.959 424.093 424.422 423.854C424.884 423.615 425.397 423.49 425.917 423.491C428.047 423.584 430.093 424.351 431.76 425.68C431.897 425.794 432.004 425.939 432.072 426.103C432.14 426.266 432.168 426.444 432.153 426.621C432.137 426.798 432.08 426.969 431.984 427.118C431.889 427.268 431.759 427.393 431.605 427.481C431.403 427.603 431.167 427.654 430.933 427.629C430.699 427.603 430.48 427.501 430.309 427.339C429.393 426.428 428.284 425.733 427.065 425.304C425.845 424.876 424.546 424.726 423.261 424.864Z" fill="#F5F5F5"></path><path d="M418.609 427.015C418.951 426.624 419.374 426.311 419.848 426.099C420.322 425.886 420.837 425.779 421.356 425.784C423.407 425.91 425.366 426.681 426.953 427.987C427.09 428.102 427.197 428.248 427.265 428.412C427.333 428.577 427.361 428.756 427.345 428.934C427.33 429.112 427.273 429.283 427.177 429.434C427.082 429.585 426.952 429.71 426.798 429.8C426.596 429.922 426.36 429.974 426.126 429.948C425.892 429.922 425.673 429.82 425.502 429.658C424.636 428.714 423.563 427.984 422.367 427.526C421.171 427.067 419.884 426.892 418.609 427.015Z" fill="#F5F5F5"></path><path d="M488.302 271.434C489.092 295.364 489.144 347.19 489.144 347.19C489.39 350.17 489.65 355.456 489.87 366.184C490.194 381.732 490.945 420.122 490.945 420.122C490.945 420.122 483.521 423.607 476.693 420.77C476.693 420.77 467.209 366.793 465.266 351.401C463.568 337.965 460.316 306.455 460.316 306.455L455.833 346.451C455.833 346.451 455.833 356.817 455.224 365.964C454.719 373.09 447.8 409.796 447.8 409.796C443.281 410.996 438.509 410.838 434.079 409.342C434.079 409.342 433.457 352.994 433.328 346.451C433.185 339.014 435.103 258.607 435.103 258.607L488.302 271.434Z" fill="#455A64"></path><path d="M460.342 306.455L458.632 292.89C453.109 291.478 447.886 289.081 443.214 285.815C443.214 285.815 446.505 290.221 456.17 294.885L458.347 307.194L455.885 346.452L460.342 306.455Z" fill="#37474F"></path><path d="M434.494 204.28C430.996 208.867 412.999 233.562 412.999 233.562L396.376 220.683C392.489 217.638 391.336 213.648 388.9 210.888C386.464 208.128 383.795 207.468 381.062 205.161C378.328 202.855 377.278 201.106 376.345 203.075C375.413 205.045 378.431 208.478 378.937 209.307C379.442 210.137 382.564 212.119 378.444 211.899C374.324 211.678 366.395 206.975 364.477 206.107C362.56 205.239 362.508 207.61 363.415 209.165C364.322 210.72 363.868 215.047 364.931 217.833C365.993 220.618 367.859 222.329 371.655 224.207C375.192 225.969 383.795 227.071 386.594 228.833C392.735 235.13 404.318 246.881 407.247 249.058C411.276 252.051 415.176 254.811 421.343 248.876C427.51 242.942 445.377 219.66 445.377 219.66L449.07 197.517C443.006 197.297 438.718 198.748 434.494 204.28Z" fill="#B16668"></path><path d="M412.999 233.562C415.279 235.246 417.65 239.03 417.871 240.727C417.844 239.119 417.485 237.534 416.816 236.071C416.147 234.608 415.183 233.3 413.984 232.228L412.999 233.562Z" fill="#9A4A4D"></path><path d="M450.495 196.973C450.495 196.973 441.944 196.869 438.186 199.499C434.429 202.13 431.643 205.978 425.541 214.853C420.19 222.627 417.599 226.358 417.599 226.358C421.102 231.54 426.202 235.434 432.123 237.449L448.085 217.677L450.495 196.973Z" fill="#37474F"></path><path d="M467.041 196.558C471.887 197.025 478.702 197.077 483.496 197.569C486.826 198.942 493.252 204.54 492.773 208.53C490.985 223.443 487.37 247.892 487.37 247.892L488.562 273.805C481.889 280.464 450.664 283.069 434.572 272.418C434.572 272.418 435.09 225.879 436.205 218.001C438.187 203.892 439.923 198.657 447.205 197.413C454.486 196.17 467.041 196.558 467.041 196.558Z" fill="#048DA9"></path><path d="M494.482 204.656C497.98 209.243 515.989 233.938 515.989 233.938L532.626 221.059C536.512 218.001 537.666 214.011 540.101 211.264C542.537 208.517 545.206 207.843 547.94 205.537C550.674 203.231 551.723 201.482 552.656 203.438C553.589 205.395 550.57 208.854 550.065 209.683C549.56 210.512 546.437 212.495 550.557 212.275C554.677 212.054 562.594 207.338 564.524 206.47C566.455 205.602 566.481 207.973 565.587 209.528C564.693 211.082 565.12 215.423 564.071 218.209C563.021 220.994 561.143 222.691 557.346 224.583C553.809 226.345 545.206 227.447 542.408 229.209C536.266 235.492 524.683 247.257 521.755 249.421C517.726 252.414 513.826 255.173 507.658 249.252C501.491 243.331 487.395 224.894 487.395 224.894L479.932 197.893C485.982 197.673 490.271 199.124 494.482 204.656Z" fill="#B16668"></path><path d="M515.99 233.938C513.709 235.622 511.338 239.405 511.118 241.103C511.143 239.492 511.501 237.904 512.17 236.439C512.839 234.974 513.804 233.664 515.005 232.59L515.99 233.938Z" fill="#9A4A4D"></path><path d="M479.077 197.245C479.077 197.245 486.76 196.766 490.802 199.836C494.443 202.635 497.281 206.315 503.448 215.19C508.799 222.964 511.39 226.695 511.39 226.695C507.88 231.875 502.776 235.768 496.853 237.786L485.983 224.389C480.321 217.211 474.71 206.289 479.077 197.245Z" fill="#37474F"></path><path d="M468.245 161.472C468.27 164.445 467.414 167.358 465.784 169.844C464.154 172.329 461.823 174.276 459.087 175.437C456.35 176.598 453.331 176.921 450.411 176.367C447.491 175.812 444.801 174.404 442.681 172.32C440.561 170.236 439.106 167.571 438.501 164.66C437.896 161.75 438.168 158.726 439.281 155.97C440.395 153.214 442.301 150.85 444.758 149.177C447.216 147.505 450.113 146.598 453.086 146.572C455.06 146.555 457.017 146.927 458.847 147.667C460.677 148.406 462.344 149.499 463.751 150.883C465.159 152.266 466.28 153.914 467.051 155.731C467.822 157.547 468.228 159.499 468.245 161.472Z" fill="#263238"></path><path d="M479.297 172.071C479.297 172.071 476.952 183.537 475.993 185.416C475.355 186.583 474.293 187.459 473.026 187.865L473.117 179.806L479.297 172.071Z" fill="#263238"></path><path d="M476.097 155.707C476.947 155.598 477.81 155.685 478.621 155.961C479.432 156.237 480.168 156.695 480.775 157.3C482.796 159.334 481.733 165.761 479.298 172.071L474.711 172.641L476.097 155.707Z" fill="#263238"></path><path d="M473.338 172.654C474.258 173.198 475.553 171.358 476.681 170.218C477.808 169.078 481.488 167.367 483.379 171.241C485.271 175.115 481.824 180.466 478.922 181.399C473.908 183.032 473.118 179.806 473.118 179.806L472.91 198.489C466.743 206.561 449.394 206.03 456.546 197.608V192.088C454.313 192.463 452.045 192.598 449.783 192.49C446.078 191.959 443.732 189.057 442.566 185.066C440.714 178.666 439.975 173.483 441.4 160.824C442.955 146.961 459.06 146.676 467.806 152.079C476.551 157.482 473.338 172.654 473.338 172.654Z" fill="#B16668"></path><path d="M473.35 174.196C473.804 174.196 475.54 171.267 476.68 170.218C478.248 168.754 476.097 155.707 476.097 155.707C476.635 154.549 476.812 153.256 476.604 151.996C476.396 150.736 475.813 149.569 474.931 148.645C472.741 146.274 469.684 143.385 459.837 144.629C452.801 145.523 445.17 147.79 438.964 144.81C438.411 146.831 438.474 148.97 439.143 150.955C439.812 152.939 441.058 154.68 442.721 155.953C442.721 155.953 444.976 157.378 450.871 158.039C456.306 158.396 461.763 158.245 467.17 157.585C468.88 157.339 469.256 158.985 470.215 163.506C471.057 167.458 471.796 174.183 473.35 174.196Z" fill="#263238"></path><path d="M476.097 156.717L481.629 153.685C481.45 153.311 481.196 152.977 480.883 152.704C480.57 152.431 480.205 152.225 479.81 152.097C479.414 151.97 478.997 151.925 478.584 151.964C478.171 152.003 477.77 152.126 477.405 152.325C476.664 152.748 476.114 153.441 475.871 154.259C475.627 155.077 475.708 155.957 476.097 156.717Z" fill="#263238"></path><path d="M456.507 192.088C456.507 192.088 464.747 190.352 467.611 188.797C469.299 187.9 470.676 186.514 471.562 184.82C471.144 186.508 470.391 188.094 469.347 189.484C467.261 192.205 456.533 194.278 456.533 194.278L456.507 192.088Z" fill="#9A4A4D"></path><path d="M455.846 171.332C455.842 171.553 455.883 171.772 455.964 171.977C456.046 172.182 456.167 172.368 456.322 172.526C456.476 172.684 456.66 172.81 456.863 172.896C457.066 172.982 457.284 173.028 457.504 173.029C457.849 173.042 458.189 172.952 458.481 172.769C458.774 172.587 459.005 172.321 459.144 172.006C459.284 171.691 459.326 171.341 459.265 171.002C459.204 170.663 459.042 170.35 458.801 170.103C458.561 169.857 458.251 169.688 457.914 169.619C457.576 169.55 457.226 169.584 456.907 169.716C456.589 169.849 456.318 170.073 456.129 170.361C455.939 170.649 455.841 170.988 455.846 171.332Z" fill="#263238"></path><path d="M460.757 165.644L457.077 163.973C456.864 164.476 456.852 165.042 457.045 165.554C457.238 166.066 457.621 166.483 458.114 166.72C458.357 166.828 458.62 166.885 458.886 166.889C459.153 166.893 459.417 166.844 459.664 166.743C459.911 166.643 460.135 166.494 460.322 166.305C460.51 166.116 460.658 165.892 460.757 165.644Z" fill="#263238"></path><path d="M445.015 163.61L441.814 166.124C441.966 166.342 442.16 166.526 442.386 166.665C442.612 166.805 442.864 166.896 443.126 166.934C443.389 166.972 443.656 166.955 443.912 166.884C444.168 166.814 444.407 166.692 444.613 166.525C445.038 166.181 445.316 165.689 445.39 165.147C445.465 164.606 445.331 164.056 445.015 163.61Z" fill="#263238"></path><path d="M443.084 170.93C443.099 171.24 443.205 171.538 443.388 171.788C443.571 172.037 443.824 172.228 444.115 172.335C444.405 172.443 444.721 172.462 445.023 172.392C445.324 172.321 445.598 172.164 445.811 171.939C446.024 171.713 446.166 171.431 446.22 171.126C446.273 170.82 446.236 170.506 446.112 170.222C445.989 169.938 445.784 169.697 445.525 169.528C445.265 169.359 444.961 169.27 444.652 169.272C444.439 169.277 444.23 169.324 444.037 169.41C443.843 169.497 443.668 169.62 443.522 169.774C443.376 169.929 443.263 170.11 443.187 170.309C443.112 170.507 443.077 170.718 443.084 170.93Z" fill="#263238"></path><path d="M451.662 169.596L450.729 179.508L445.611 177.538L451.662 169.596Z" fill="#9A4A4D"></path><path d="M454.473 183.226C454.47 183.542 454.561 183.851 454.735 184.115C454.909 184.379 455.157 184.585 455.447 184.708C455.738 184.83 456.059 184.864 456.369 184.804C456.679 184.744 456.964 184.593 457.189 184.371C457.413 184.148 457.566 183.864 457.628 183.555C457.691 183.245 457.66 182.924 457.54 182.632C457.42 182.34 457.215 182.091 456.953 181.915C456.691 181.739 456.382 181.646 456.066 181.646C455.646 181.645 455.243 181.812 454.944 182.108C454.646 182.404 454.476 182.806 454.473 183.226Z" fill="#9A4A4D"></path><path d="M494.924 77.6698C497.395 78.22 499.776 79.1141 501.999 80.3259C504.124 81.4698 506.028 82.9835 507.622 84.7959C509.155 86.5518 510.287 88.6211 510.939 90.8595C511.62 93.2322 511.674 95.7414 511.094 98.141C510.71 100.046 509.953 101.856 508.866 103.466C507.889 104.852 506.714 106.087 505.38 107.133C504.075 108.146 502.683 109.044 501.221 109.815L497.101 111.991C495.858 112.641 494.678 113.404 493.577 114.272C492.582 115.027 491.819 116.046 491.374 117.213C491.151 117.733 490.787 118.182 490.325 118.509C490.103 118.678 489.845 118.796 489.572 118.852C489.298 118.908 489.015 118.901 488.744 118.832L482.681 117.537C482.39 117.475 482.114 117.357 481.869 117.188C481.624 117.019 481.416 116.803 481.255 116.552C481.086 116.318 480.974 116.046 480.929 115.76C480.884 115.475 480.907 115.182 480.996 114.907C481.501 113.022 482.383 111.259 483.587 109.724C484.673 108.37 485.927 107.159 487.319 106.122C488.663 105.138 490.089 104.272 491.582 103.531C493.059 102.792 494.432 102.08 495.702 101.38C496.863 100.767 497.953 100.028 498.954 99.1775C499.826 98.4429 500.432 97.441 500.677 96.3271C500.901 95.3543 500.886 94.3418 500.633 93.376C500.381 92.4103 499.898 91.5202 499.226 90.7818C497.551 88.9509 495.311 87.7332 492.864 87.3224C488.338 86.3118 484.512 87.8363 481.385 91.896C481.085 92.3405 480.702 92.7232 480.258 93.0232C480.017 93.1457 479.755 93.2191 479.486 93.2391C479.216 93.2591 478.946 93.2254 478.69 93.1398L472.212 91.7017C471.983 91.6577 471.766 91.5685 471.572 91.4395C471.379 91.3105 471.213 91.1441 471.084 90.9502C470.943 90.7517 470.848 90.5244 470.806 90.2847C470.763 90.0449 470.774 89.7988 470.838 89.5639C471.383 87.5726 472.406 85.7445 473.818 84.2387C475.403 82.4889 477.285 81.0327 479.377 79.9372C481.669 78.7338 484.141 77.9112 486.697 77.5014C489.424 77.0216 492.219 77.0788 494.924 77.6698ZM488.083 123.717C488.368 123.778 488.637 123.897 488.873 124.066C489.109 124.236 489.308 124.452 489.457 124.702C489.616 124.944 489.725 125.215 489.776 125.5C489.827 125.785 489.82 126.078 489.755 126.36L488.2 133.383C488.07 133.943 487.726 134.431 487.243 134.743C486.759 135.055 486.173 135.167 485.609 135.054L478.742 133.538C478.459 133.477 478.192 133.36 477.955 133.193C477.719 133.026 477.52 132.813 477.368 132.566C477.207 132.325 477.097 132.054 477.046 131.768C476.994 131.483 477.003 131.19 477.07 130.908L478.625 123.873C478.755 123.312 479.099 122.824 479.582 122.512C480.066 122.2 480.652 122.089 481.216 122.201L488.083 123.717Z" fill="#048DA9"></path><path d="M515.292 143.735C517.005 143.452 518.751 143.417 520.474 143.631C522.132 143.819 523.742 144.302 525.229 145.056C526.65 145.783 527.896 146.809 528.883 148.062C529.929 149.406 530.604 151.001 530.84 152.688C531.108 154 531.108 155.353 530.84 156.665C530.57 157.807 530.133 158.903 529.544 159.917C528.967 160.895 528.308 161.823 527.575 162.69L525.489 165.152C524.861 165.888 524.297 166.677 523.804 167.51C523.365 168.25 523.141 169.098 523.156 169.959C523.154 170.363 523.037 170.758 522.82 171.099C522.72 171.262 522.587 171.401 522.428 171.506C522.269 171.611 522.088 171.68 521.9 171.708L517.663 172.407C517.254 172.472 516.835 172.374 516.497 172.135C516.331 172.027 516.192 171.882 516.091 171.711C515.99 171.54 515.929 171.349 515.914 171.151C515.737 169.823 515.838 168.473 516.212 167.186C516.548 166.032 517.04 164.929 517.676 163.908C518.282 162.931 518.972 162.008 519.736 161.148C520.5 160.293 521.187 159.49 521.835 158.712C522.419 158.022 522.927 157.27 523.351 156.471C523.722 155.777 523.854 154.98 523.726 154.204C523.621 153.521 523.351 152.874 522.941 152.319C522.53 151.764 521.99 151.317 521.368 151.016C519.833 150.266 518.089 150.056 516.419 150.42C514.908 150.643 513.503 151.326 512.395 152.376C511.287 153.427 510.529 154.793 510.226 156.29C510.144 156.655 509.994 157.002 509.785 157.313C509.534 157.589 509.186 157.756 508.814 157.78L504.305 158.518C503.985 158.571 503.656 158.501 503.385 158.324C503.243 158.232 503.123 158.11 503.033 157.967C502.944 157.824 502.887 157.662 502.867 157.495C502.71 156.079 502.901 154.647 503.424 153.323C503.986 151.791 504.82 150.373 505.885 149.138C507.048 147.781 508.421 146.622 509.954 145.704C511.588 144.707 513.401 144.038 515.292 143.735ZM522.69 175.076C522.889 175.043 523.092 175.05 523.288 175.097C523.484 175.144 523.668 175.229 523.83 175.349C523.992 175.464 524.13 175.61 524.234 175.779C524.339 175.948 524.408 176.137 524.439 176.333L525.242 181.231C525.276 181.429 525.269 181.633 525.222 181.829C525.175 182.024 525.09 182.209 524.97 182.371C524.857 182.535 524.711 182.673 524.541 182.778C524.372 182.883 524.183 182.951 523.986 182.98L519.192 183.77C518.995 183.803 518.794 183.795 518.601 183.748C518.407 183.702 518.225 183.617 518.065 183.498C517.898 183.386 517.757 183.24 517.65 183.071C517.543 182.902 517.473 182.712 517.443 182.514L516.639 177.603C516.58 177.199 516.683 176.789 516.926 176.461C517.169 176.133 517.532 175.915 517.935 175.854L522.69 175.076Z" fill="#048DA9"></path><g opacity="0.2"><path d="M515.292 143.735C517.005 143.452 518.751 143.417 520.474 143.631C522.132 143.819 523.742 144.302 525.229 145.056C526.65 145.783 527.896 146.809 528.883 148.062C529.929 149.406 530.604 151.001 530.84 152.688C531.108 154 531.108 155.353 530.84 156.665C530.57 157.807 530.133 158.903 529.544 159.917C528.967 160.895 528.308 161.823 527.575 162.69L525.489 165.152C524.861 165.888 524.297 166.677 523.804 167.51C523.365 168.25 523.141 169.098 523.156 169.959C523.154 170.363 523.037 170.758 522.82 171.099C522.72 171.262 522.587 171.401 522.428 171.506C522.269 171.611 522.088 171.68 521.9 171.708L517.663 172.407C517.254 172.472 516.835 172.374 516.497 172.135C516.331 172.027 516.192 171.882 516.091 171.711C515.99 171.54 515.929 171.349 515.914 171.151C515.737 169.823 515.838 168.473 516.212 167.186C516.548 166.032 517.04 164.929 517.676 163.908C518.282 162.931 518.972 162.008 519.736 161.148C520.5 160.293 521.187 159.49 521.835 158.712C522.419 158.022 522.927 157.27 523.351 156.471C523.722 155.777 523.854 154.98 523.726 154.204C523.621 153.521 523.351 152.874 522.941 152.319C522.53 151.764 521.99 151.317 521.368 151.016C519.833 150.266 518.089 150.056 516.419 150.42C514.908 150.643 513.503 151.326 512.395 152.376C511.287 153.427 510.529 154.793 510.226 156.29C510.144 156.655 509.994 157.002 509.785 157.313C509.534 157.589 509.186 157.756 508.814 157.78L504.305 158.518C503.985 158.571 503.656 158.501 503.385 158.324C503.243 158.232 503.123 158.11 503.033 157.967C502.944 157.824 502.887 157.662 502.867 157.495C502.71 156.079 502.901 154.647 503.424 153.323C503.986 151.791 504.82 150.373 505.885 149.138C507.048 147.781 508.421 146.622 509.954 145.704C511.588 144.707 513.401 144.038 515.292 143.735ZM522.69 175.076C522.889 175.043 523.092 175.05 523.288 175.097C523.484 175.144 523.668 175.229 523.83 175.349C523.992 175.464 524.13 175.61 524.234 175.779C524.339 175.948 524.408 176.137 524.439 176.333L525.242 181.231C525.276 181.429 525.269 181.633 525.222 181.829C525.175 182.024 525.09 182.209 524.97 182.371C524.857 182.535 524.711 182.673 524.541 182.778C524.372 182.883 524.183 182.951 523.986 182.98L519.192 183.77C518.995 183.803 518.794 183.795 518.601 183.748C518.407 183.702 518.225 183.617 518.065 183.498C517.898 183.386 517.757 183.24 517.65 183.071C517.543 182.902 517.473 182.712 517.443 182.514L516.639 177.603C516.58 177.199 516.683 176.789 516.926 176.461C517.169 176.133 517.532 175.915 517.935 175.854L522.69 175.076Z" fill="black"></path></g><path d="M559.473 157.637C559.858 157.918 560.118 158.337 560.197 158.807C560.277 159.276 560.171 159.758 559.9 160.151L556.48 164.944C556.199 165.329 555.779 165.589 555.31 165.669C554.84 165.749 554.358 165.642 553.966 165.372L549.276 162.042C549.083 161.907 548.919 161.734 548.794 161.533C548.669 161.333 548.586 161.109 548.55 160.876C548.482 160.422 548.589 159.959 548.848 159.58L552.269 154.774C552.547 154.387 552.966 154.126 553.435 154.048C553.891 153.98 554.356 154.091 554.731 154.359L559.473 157.637ZM579.27 125.129C580.961 126.322 582.471 127.754 583.753 129.379C584.991 130.925 585.943 132.68 586.565 134.562C587.159 136.359 587.358 138.264 587.148 140.146C586.905 142.149 586.146 144.056 584.945 145.678C584.05 146.99 582.905 148.113 581.576 148.982C580.395 149.716 579.111 150.27 577.767 150.628C576.464 150.975 575.133 151.209 573.79 151.327L569.98 151.651C568.843 151.755 567.716 151.955 566.612 152.247C565.624 152.508 564.727 153.037 564.02 153.776C563.681 154.107 563.261 154.343 562.803 154.463C562.58 154.515 562.348 154.518 562.124 154.471C561.9 154.424 561.69 154.328 561.507 154.191L557.361 151.249C556.965 150.965 556.696 150.537 556.609 150.057C556.56 149.831 556.563 149.596 556.619 149.372C556.676 149.147 556.783 148.938 556.933 148.762C557.897 147.497 559.11 146.444 560.496 145.665C561.744 144.981 563.077 144.467 564.461 144.136C565.788 143.815 567.141 143.607 568.503 143.514C569.799 143.437 571.095 143.333 572.287 143.216C573.357 143.124 574.413 142.911 575.435 142.582C576.326 142.31 577.101 141.749 577.638 140.988C578.119 140.328 578.432 139.561 578.55 138.752C578.667 137.944 578.585 137.119 578.311 136.35C577.636 134.44 576.34 132.812 574.632 131.724C571.548 129.521 568.179 129.448 564.526 131.504C564.157 131.739 563.749 131.906 563.321 131.996C563.098 132.012 562.875 131.983 562.664 131.912C562.452 131.841 562.257 131.729 562.09 131.582L557.685 128.446C557.364 128.228 557.141 127.893 557.063 127.513C557.025 127.319 557.03 127.119 557.077 126.926C557.124 126.734 557.212 126.554 557.335 126.399C558.361 125.074 559.695 124.02 561.222 123.328C562.974 122.518 564.856 122.022 566.78 121.864C568.888 121.692 571.009 121.859 573.064 122.357C575.296 122.86 577.406 123.803 579.27 125.129Z" fill="#048DA9"></path><g opacity="0.6"><path d="M559.473 157.637C559.858 157.918 560.118 158.337 560.197 158.807C560.277 159.276 560.171 159.758 559.9 160.151L556.48 164.944C556.199 165.329 555.779 165.589 555.31 165.669C554.84 165.749 554.358 165.642 553.966 165.372L549.276 162.042C549.083 161.907 548.919 161.734 548.794 161.533C548.669 161.333 548.586 161.109 548.55 160.876C548.482 160.422 548.589 159.959 548.848 159.58L552.269 154.774C552.547 154.387 552.966 154.126 553.435 154.048C553.891 153.98 554.356 154.091 554.731 154.359L559.473 157.637ZM579.27 125.129C580.961 126.322 582.471 127.754 583.753 129.379C584.991 130.925 585.943 132.68 586.565 134.562C587.159 136.359 587.358 138.264 587.148 140.146C586.905 142.149 586.146 144.056 584.945 145.678C584.05 146.99 582.905 148.113 581.576 148.982C580.395 149.716 579.111 150.27 577.767 150.628C576.464 150.975 575.133 151.209 573.79 151.327L569.98 151.651C568.843 151.755 567.716 151.955 566.612 152.247C565.624 152.508 564.727 153.037 564.02 153.776C563.681 154.107 563.261 154.343 562.803 154.463C562.58 154.515 562.348 154.518 562.124 154.471C561.9 154.424 561.69 154.328 561.507 154.191L557.361 151.249C556.965 150.965 556.696 150.537 556.609 150.057C556.56 149.831 556.563 149.596 556.619 149.372C556.676 149.147 556.783 148.938 556.933 148.762C557.897 147.497 559.11 146.444 560.496 145.665C561.744 144.981 563.077 144.467 564.461 144.136C565.788 143.815 567.141 143.607 568.503 143.514C569.799 143.437 571.095 143.333 572.287 143.216C573.357 143.124 574.413 142.911 575.435 142.582C576.326 142.31 577.101 141.749 577.638 140.988C578.119 140.328 578.432 139.561 578.55 138.752C578.667 137.944 578.585 137.119 578.311 136.35C577.636 134.44 576.34 132.812 574.632 131.724C571.548 129.521 568.179 129.448 564.526 131.504C564.157 131.739 563.749 131.906 563.321 131.996C563.098 132.012 562.875 131.983 562.664 131.912C562.452 131.841 562.257 131.729 562.09 131.582L557.685 128.446C557.364 128.228 557.141 127.893 557.063 127.513C557.025 127.319 557.03 127.119 557.077 126.926C557.124 126.734 557.212 126.554 557.335 126.399C558.361 125.074 559.695 124.02 561.222 123.328C562.974 122.518 564.856 122.022 566.78 121.864C568.888 121.692 571.009 121.859 573.064 122.357C575.296 122.86 577.406 123.803 579.27 125.129Z" fill="white"></path></g><path d="M141.965 414.149C141.835 410.262 144.634 372.274 144.634 372.274L126.132 385.697C129.928 408.344 130.744 413.695 130.809 417.401C130.731 417.71 130.696 418.028 130.705 418.347C130.705 422.752 135.694 425.123 139.568 428.064C142.86 430.639 146.367 432.928 150.049 434.905C152.861 436.317 158.588 436.447 159.287 434.633C154.571 431.031 147.717 425.641 143.96 421.534C142.172 419.565 142.107 418.01 141.965 414.149Z" fill="#FFA8A7"></path><path d="M167.333 439.388C167.542 439.993 167.58 440.644 167.44 441.269C167.3 441.894 166.99 442.467 166.542 442.925C163.144 445.375 158.915 446.382 154.778 445.724C148.896 444.96 145.708 443.288 143.363 441.319C141.018 439.349 137.714 436.577 135.045 435.994C132.923 435.59 130.905 434.761 129.111 433.558C128.321 432.793 128.424 429.399 128.424 429.399L167.333 439.388Z" fill="#263238"></path><path d="M130.769 416.326C130.551 416.332 130.342 416.415 130.179 416.559C130.016 416.704 129.908 416.901 129.875 417.116C129.694 418.049 129.499 420.77 129.111 422.299C128.509 425.001 128.317 427.779 128.54 430.539C128.864 432.288 132.881 433.493 135.459 434.426C138.491 435.746 141.305 437.519 143.803 439.686C147.409 442.383 151.712 443.988 156.202 444.312C160.737 444.312 165.842 442.809 167.021 440.71C168.459 438.118 167.332 436.603 160.608 433.48C159.312 432.897 154.868 430.241 153.339 429.282C149.219 426.691 145.138 423.076 143.233 418.489C143.079 417.929 142.742 417.436 142.274 417.09C141.866 416.914 141.414 416.869 140.979 416.961C139.856 417.124 138.764 417.456 137.74 417.945C136.846 418.373 135.563 418.878 135.576 420.031C135.603 420.431 135.691 420.824 135.835 421.197C135.913 421.443 135.977 421.754 135.835 421.897C135.692 422.039 135.381 421.897 135.2 421.716C134.541 421.041 133.938 420.313 133.399 419.539C133.081 419.143 132.72 418.782 132.324 418.463C131.927 418.239 131.546 417.988 131.184 417.712C130.691 417.362 130.795 416.87 130.769 416.326Z" fill="#455A64"></path><path d="M143.803 439.751C142.624 438.792 141.381 437.846 140.137 437.017C140.137 437.017 148.04 441.824 151.227 439.609C151.819 439.233 152.252 438.653 152.443 437.979C152.634 437.305 152.57 436.585 152.264 435.955C152.264 435.411 157.291 433.065 159.286 432.832C159.843 433.143 160.31 433.389 160.582 433.519C167.306 436.641 168.434 438.144 166.995 440.749C165.816 442.848 162.124 444.493 156.268 444.493C152.458 444.571 146.524 441.98 143.803 439.751Z" fill="#37474F"></path><path d="M151.707 434.387C155.892 436.058 154.104 436.836 152.938 436.978C151.772 437.121 144.737 433.091 140.435 429.645C136.134 426.199 133.141 422.221 131.482 420.925C130.861 420.446 130.187 419.85 129.591 419.293C129.707 418.373 129.798 417.531 129.876 417.09C129.909 416.875 130.017 416.678 130.18 416.533C130.343 416.389 130.552 416.306 130.77 416.3C130.77 416.844 130.692 417.349 131.107 417.751C131.47 418.027 131.85 418.278 132.247 418.502C132.643 418.821 133.004 419.182 133.322 419.578C133.861 420.352 134.464 421.08 135.123 421.755C139.786 426.995 145.417 431.284 151.707 434.387Z" fill="#263238"></path><path d="M152.64 436.395C152.545 436.392 152.453 436.355 152.381 436.292C152.339 436.259 152.304 436.218 152.278 436.171C152.252 436.125 152.235 436.073 152.229 436.02C152.223 435.967 152.228 435.913 152.243 435.862C152.258 435.811 152.283 435.763 152.317 435.722C153.302 434.698 154.495 433.898 155.816 433.375C157.137 432.852 158.555 432.618 159.974 432.69C160.085 432.703 160.187 432.759 160.257 432.846C160.327 432.933 160.36 433.045 160.35 433.156C160.336 433.264 160.282 433.362 160.197 433.43C160.112 433.498 160.004 433.53 159.896 433.519C158.615 433.466 157.337 433.68 156.143 434.149C154.95 434.617 153.867 435.33 152.964 436.24C152.925 436.288 152.875 436.326 152.819 436.353C152.764 436.38 152.702 436.394 152.64 436.395Z" fill="#F5F5F5"></path><path d="M148.999 434.206C148.9 434.21 148.804 434.178 148.727 434.115C148.653 434.036 148.612 433.932 148.612 433.823C148.612 433.715 148.653 433.611 148.727 433.532C149.715 432.512 150.909 431.716 152.229 431.195C153.55 430.674 154.967 430.442 156.384 430.513C156.494 430.525 156.595 430.58 156.664 430.667C156.733 430.753 156.766 430.863 156.754 430.973C156.742 431.083 156.686 431.184 156.6 431.253C156.514 431.322 156.404 431.354 156.294 431.342C155.012 431.286 153.733 431.499 152.539 431.968C151.345 432.436 150.263 433.15 149.362 434.063C149.318 434.115 149.262 434.155 149.198 434.18C149.135 434.205 149.067 434.213 148.999 434.206Z" fill="#F5F5F5"></path><path d="M145.346 432.016C145.251 432.017 145.16 431.985 145.087 431.925C145.01 431.848 144.967 431.743 144.967 431.634C144.967 431.525 145.01 431.42 145.087 431.342C146.075 430.323 147.269 429.527 148.589 429.006C149.91 428.486 151.326 428.253 152.744 428.323C152.798 428.328 152.851 428.344 152.9 428.369C152.948 428.395 152.991 428.43 153.026 428.472C153.061 428.514 153.087 428.563 153.103 428.615C153.119 428.667 153.125 428.722 153.12 428.777C153.115 428.831 153.099 428.885 153.074 428.933C153.048 428.981 153.013 429.024 152.971 429.059C152.929 429.094 152.88 429.12 152.828 429.137C152.776 429.153 152.721 429.158 152.666 429.153C151.385 429.096 150.106 429.309 148.912 429.778C147.718 430.247 146.635 430.961 145.734 431.874C145.686 431.927 145.626 431.968 145.558 431.993C145.49 432.018 145.417 432.026 145.346 432.016Z" fill="#F5F5F5"></path><path d="M141.965 429.593C141.87 429.594 141.778 429.562 141.705 429.502C141.666 429.465 141.634 429.42 141.613 429.37C141.591 429.32 141.58 429.266 141.58 429.211C141.58 429.156 141.591 429.102 141.613 429.052C141.634 429.002 141.666 428.957 141.705 428.919C142.692 427.898 143.886 427.101 145.207 426.58C146.528 426.059 147.945 425.828 149.363 425.901C149.471 425.914 149.569 425.968 149.637 426.053C149.705 426.138 149.736 426.246 149.725 426.354C149.712 426.462 149.658 426.56 149.573 426.628C149.488 426.696 149.38 426.728 149.272 426.717C147.991 426.666 146.714 426.882 145.521 427.35C144.328 427.818 143.245 428.529 142.34 429.438C142.296 429.494 142.239 429.537 142.173 429.565C142.107 429.592 142.035 429.602 141.965 429.593Z" fill="#F5F5F5"></path><path d="M138.66 427.17C138.567 427.166 138.477 427.134 138.401 427.08C138.324 427.002 138.281 426.897 138.281 426.788C138.281 426.679 138.324 426.574 138.401 426.496C139.469 425.384 140.778 424.531 142.226 424.001C143.674 423.471 145.224 423.279 146.758 423.439C146.813 423.442 146.866 423.456 146.915 423.481C146.964 423.506 147.007 423.541 147.041 423.584C147.075 423.627 147.1 423.677 147.114 423.73C147.128 423.783 147.13 423.838 147.121 423.892C147.108 424 147.053 424.098 146.968 424.166C146.883 424.234 146.775 424.266 146.667 424.255C145.273 424.118 143.866 424.293 142.548 424.768C141.23 425.243 140.035 426.006 139.049 427.002C139.003 427.06 138.944 427.106 138.876 427.136C138.808 427.165 138.734 427.177 138.66 427.17Z" fill="#F5F5F5"></path><path d="M107.112 389.571L88.4414 389.234C88.7135 401.698 90.6958 415.523 91.0327 427.209C91.0327 429.412 91.0327 444.312 91.8101 448.847C93.1057 455.649 101.139 454.729 101.566 450.66C101.994 446.592 101.048 429.192 101.074 427.339C100.996 419.85 104.507 407.192 106.36 393.73C106.438 393.121 107.021 390.219 107.112 389.571Z" fill="#FFA8A7"></path><path d="M104.597 453.485C104.944 456.603 104.498 459.758 103.301 462.658C102.709 463.81 101.753 464.734 100.581 465.287C99.4099 465.84 98.0888 465.99 96.823 465.716C94.0633 465.314 90.4225 463.837 89.3083 460.533C88.2532 457.49 87.8816 454.252 88.2199 451.049L104.597 453.485Z" fill="#263238"></path><path d="M90.9812 425.784C89.8799 425.978 90.0872 431.355 89.9835 436.758C89.8669 442.563 88.4028 445.102 88.2603 449.857C88.0919 455.299 88.6231 457.631 90.8516 460.715C93.0801 463.798 100.038 466.286 102.849 461.311C105.143 457.255 104.832 453.044 104.041 447.706C103.251 442.368 102.629 438.326 102.422 434.102C102.214 429.878 102.124 426.134 101.126 425.784C101.126 426.38 101.126 427.144 101.126 427.727C101.126 428.31 101.217 430.319 100.595 430.448C100.499 429.948 100.443 429.441 100.426 428.932C100.455 428.462 100.302 427.998 99.9989 427.637C99.6241 427.36 99.1689 427.215 98.7032 427.222C97.5934 427.097 96.4773 427.037 95.3605 427.041C94.8033 427.041 94.2332 427.041 93.6891 427.131C93.2103 427.168 92.7414 427.286 92.3027 427.481C92.1735 427.536 92.0573 427.618 91.9613 427.721C91.8654 427.823 91.7919 427.945 91.7456 428.077C91.7067 428.283 91.7067 428.494 91.7456 428.699C91.791 429.069 91.791 429.443 91.7456 429.813C91.7456 429.982 91.629 430.189 91.4606 430.163C91.2921 430.137 91.2662 429.982 91.2532 429.852C91.1755 429.204 91.2532 428.725 91.1755 427.974C91.1755 427.624 91.1755 427.144 91.1755 426.795C91.1755 426.445 90.9941 426.134 90.9812 425.784Z" fill="#455A64"></path><path d="M88.3507 448.302C88.3507 449.093 88.1822 454.288 89.6463 455.066C91.1104 455.843 91.6805 451.801 91.6805 451.801C91.6805 451.801 95.1139 450.362 100.504 452.099C100.322 452.954 101.385 455.623 102.745 454.897C104.106 454.172 104.041 448.25 104.041 448.173C104.779 453.355 105.013 457.372 102.745 461.311C99.9337 466.286 92.9502 463.772 90.7476 460.715C88.545 457.657 88.0138 455.299 88.1563 449.857C88.2211 449.313 88.3118 448.808 88.3507 448.302Z" fill="#37474F"></path><path d="M92.1078 452.099C92.2763 454.042 90.3069 453.589 89.9441 450.803C89.5813 448.017 90.4364 441.422 89.9441 436.706C90.0478 431.303 89.8404 425.927 90.9417 425.732C90.9353 425.797 90.9353 425.862 90.9417 425.927L91.0713 428.66C91.0457 429.049 91.0457 429.438 91.0713 429.826C91.4341 433.791 91.6544 441.487 91.6673 445.141C91.6901 447.466 91.8372 449.789 92.1078 452.099Z" fill="#263238"></path><path d="M99.8813 452.098C100.135 449.805 100.261 447.5 100.257 445.193C100.257 441.565 100.49 433.959 100.853 429.969C100.993 429.23 101.05 428.479 101.021 427.727C101.021 427.183 101.021 426.432 101.021 425.914C101.021 425.914 101.021 425.836 101.021 425.784C101.747 426.056 102.006 428.194 102.162 430.889C102.162 432.457 102.162 434.4 102.019 436.758C101.527 441.474 102.382 448.16 102.019 450.894C101.656 453.627 99.7517 454.042 99.8813 452.098Z" fill="#263238"></path><path d="M100.646 452.241H100.503C97.7035 451.275 94.6608 451.275 91.8612 452.241C91.8101 452.261 91.7557 452.27 91.7011 452.269C91.6464 452.267 91.5926 452.255 91.5427 452.233C91.4928 452.21 91.4477 452.179 91.4101 452.139C91.3725 452.099 91.343 452.052 91.3235 452.001C91.3039 451.95 91.2946 451.896 91.296 451.841C91.2975 451.787 91.3097 451.733 91.332 451.683C91.3542 451.633 91.3861 451.588 91.4258 451.55C91.4654 451.513 91.5121 451.483 91.5632 451.464C94.5501 450.397 97.8142 450.397 100.801 451.464C100.852 451.482 100.899 451.511 100.938 451.548C100.978 451.585 101.009 451.63 101.031 451.68C101.053 451.729 101.064 451.783 101.065 451.837C101.066 451.891 101.055 451.945 101.034 451.995C101.003 452.071 100.948 452.135 100.879 452.179C100.809 452.223 100.728 452.245 100.646 452.241Z" fill="#F5F5F5"></path><path d="M101.177 447.939C101.13 447.951 101.081 447.951 101.034 447.939C97.8867 446.962 94.5167 446.962 91.3689 447.939C91.3171 447.958 91.2621 447.966 91.2072 447.962C91.1522 447.959 91.0985 447.945 91.049 447.921C90.9996 447.897 90.9555 447.863 90.9192 447.822C90.8829 447.781 90.8552 447.732 90.8377 447.68C90.8196 447.629 90.8119 447.575 90.8152 447.521C90.8185 447.467 90.8326 447.414 90.8569 447.366C90.8811 447.318 90.9148 447.275 90.956 447.24C90.9973 447.204 91.0452 447.178 91.0968 447.162C94.4221 446.103 97.9942 446.103 101.319 447.162C101.411 447.196 101.487 447.261 101.535 447.345C101.583 447.429 101.6 447.528 101.583 447.623C101.566 447.719 101.517 447.805 101.442 447.868C101.368 447.93 101.274 447.965 101.177 447.965V447.939Z" fill="#F5F5F5"></path><path d="M91.2009 443.871C91.1216 443.869 91.0445 443.845 90.9781 443.802C90.9117 443.758 90.8588 443.697 90.8252 443.625C90.7813 443.525 90.7784 443.412 90.8172 443.311C90.856 443.209 90.9333 443.126 91.0325 443.081C94.3054 441.794 97.9402 441.771 101.229 443.016C101.28 443.035 101.327 443.063 101.366 443.101C101.406 443.138 101.437 443.182 101.459 443.232C101.481 443.282 101.493 443.335 101.493 443.389C101.494 443.444 101.483 443.497 101.462 443.547C101.422 443.648 101.344 443.729 101.244 443.772C101.145 443.816 101.033 443.819 100.931 443.781C100.931 443.781 95.8523 441.785 91.3823 443.781C91.3295 443.824 91.2674 443.855 91.2009 443.871Z" fill="#F5F5F5"></path><path d="M91.1094 440.062C91.0312 440.062 90.9544 440.041 90.8879 440C90.8214 439.958 90.7679 439.899 90.7337 439.829C90.6889 439.731 90.6842 439.619 90.7204 439.517C90.7567 439.416 90.8312 439.332 90.928 439.285C92.5523 438.544 94.3134 438.151 96.0983 438.131C97.8832 438.111 99.6527 438.464 101.293 439.168C101.342 439.19 101.386 439.222 101.423 439.262C101.46 439.301 101.488 439.348 101.506 439.399C101.524 439.45 101.532 439.503 101.529 439.557C101.525 439.611 101.511 439.664 101.488 439.712C101.465 439.761 101.433 439.805 101.394 439.842C101.354 439.878 101.307 439.907 101.257 439.925C101.206 439.943 101.152 439.951 101.098 439.947C101.044 439.944 100.992 439.93 100.943 439.906C99.4042 439.269 97.7516 438.951 96.0857 438.971C94.4198 438.991 92.7754 439.349 91.2519 440.023C91.2069 440.044 91.1587 440.057 91.1094 440.062Z" fill="#F5F5F5"></path><path d="M91.0195 435.799C90.9246 435.801 90.8321 435.77 90.7574 435.711C90.6827 435.652 90.6304 435.57 90.6091 435.477C90.5879 435.385 90.5991 435.288 90.6407 435.203C90.6824 435.117 90.752 435.049 90.8381 435.009C95.7745 432.573 101.1 434.905 101.32 435.009C101.371 435.028 101.418 435.058 101.457 435.097C101.496 435.136 101.526 435.183 101.546 435.234C101.566 435.286 101.574 435.341 101.571 435.396C101.568 435.451 101.553 435.504 101.527 435.553C101.482 435.652 101.399 435.73 101.298 435.768C101.196 435.807 101.083 435.804 100.983 435.76C100.983 435.76 95.8004 433.493 91.2138 435.76C91.1539 435.791 91.0866 435.805 91.0195 435.799Z" fill="#F5F5F5"></path><path d="M94.5823 268.363C88.0005 286.593 89.1536 298.033 90.2808 317.144C91.3173 334.661 92.9628 350.092 92.9628 350.092C92.7037 353.202 88.3762 359.266 87.7802 372.999C87.5892 382.67 88.022 392.342 89.0759 401.957C89.0759 401.957 97.6919 405.105 104.973 401.957C104.973 401.957 112.423 369.061 114.458 352.982C116.22 338.95 119.303 321.018 119.303 321.018L125.781 352.917C124.515 357.204 123.865 361.649 123.851 366.12C123.851 373.621 127.336 394.481 127.336 394.481C127.336 394.481 136.989 397.604 143.104 392.175C143.104 392.175 145.527 362.155 146.382 350.714C147.522 335.452 145.864 293.615 142.197 272.198L94.5823 268.363Z" fill="#455A64"></path><path d="M119.381 320.966L122.076 296.971C122.076 296.971 134.138 295.364 139.606 290.22C138.037 292.674 135.947 294.75 133.483 296.302C131.02 297.854 128.244 298.844 125.354 299.199L121.467 321.536L125.872 352.865L119.381 320.966Z" fill="#37474F"></path><path d="M149.206 250.574C143.337 244.536 132.739 230.88 132.739 230.88L126.753 210.15C128.091 210.219 129.431 210.219 130.769 210.15C137.248 210.577 139.152 211.134 143.182 215.539C146.382 219.051 158.587 235.713 162.824 241.323L174.083 226.98C176.791 222.899 176.35 218.325 177.75 214.995C179.149 211.665 181.416 210.201 183.23 207.221C185.044 204.241 185.472 202.246 186.962 203.788C188.452 205.33 186.728 209.476 186.508 210.422C186.288 211.367 184.008 214.179 187.804 212.715C191.6 211.251 197.456 204.319 198.959 202.907C200.462 201.495 201.266 203.684 200.929 205.42C200.592 207.157 202.224 211.069 201.628 213.933C201.257 216.813 199.825 219.451 197.612 221.331C194.878 224.078 188.192 227.459 185.575 231.074C182.958 234.689 177.374 245.922 173.914 252.686C169.574 261.289 165.881 264.126 160.958 261.224C156.035 258.322 151.37 252.815 149.206 250.574Z" fill="#FFA8A7"></path><path d="M128.658 209.929C131.971 209.598 135.315 210.042 138.427 211.225C141.938 212.806 144.322 216.2 147.756 220.8C151.189 225.399 157.318 233.445 157.318 233.445C157.318 233.445 155.659 240.429 144.724 246.7L126.87 228.315L128.658 209.929Z" fill="#37474F"></path><path d="M162.824 241.31C160.688 243.325 159.257 245.973 158.743 248.864C158.743 248.864 157.447 244.705 161.865 240.027L162.824 241.31Z" fill="#F28F8F"></path><path d="M141.588 246.739C149.556 240.183 146.926 231.644 144.024 225.892C138.206 214.399 132.156 209.878 129.629 209.916L113.783 210.072C106.217 211.108 100.361 210.59 98.5337 211.018C93.8694 212.119 93.7657 215.954 93.5843 220.916C93.39 226.358 90.6044 225.438 92.0166 234.43C93.6823 237.772 95.1447 241.212 96.3959 244.73C97.251 247.84 99.6609 252.789 98.3782 257.816C97.8859 259.76 96.5643 261.703 94.582 267.028C92.3343 273.014 90.6639 279.201 89.5938 285.504C89.5938 285.504 94.2192 284.429 99.4795 278.832C99.4795 278.832 106.67 288.458 123.967 287.487C141.912 286.476 143.493 277.122 143.493 277.122L140.746 260.278C141.16 253.476 141.342 251.014 141.588 246.739Z" fill="#048DA9"></path><path opacity="0.1" d="M131.236 245.041C131.236 245.041 124.758 250.224 117.152 247.736C115.034 247.101 113.113 245.934 111.573 244.347C110.033 242.759 108.925 240.804 108.355 238.667C108.355 238.667 107.707 247.283 117.269 250.056C119.827 250.831 122.566 250.763 125.082 249.86C127.598 248.956 129.756 247.267 131.236 245.041Z" fill="black"></path><path d="M85.8755 202.518C83.5304 200.808 70.8979 217.716 76.806 221.953C82.7141 226.19 89.011 214.179 87.7412 208.504C86.4715 202.829 85.8755 202.518 85.8755 202.518Z" fill="#37474F"></path><path d="M74.409 194.122C77.5704 189.743 79.7211 186.439 82.6104 182.682C84.2429 180.544 85.2924 179.028 86.8601 176.839C87.9485 175.336 88.5834 174.066 89.8013 173.587C91.1609 172.988 92.376 172.104 93.3643 170.995C93.9694 170.294 94.5277 169.554 95.0357 168.78C96.8619 166.251 99.0438 163.999 101.514 162.094C104.105 160.086 106.943 158.531 109.586 156.614C111.153 155.473 112.838 153.595 110.881 151.897C110.273 151.407 109.552 151.077 108.782 150.939C104.066 149.993 99.985 151.69 95.3984 152.947C93.404 153.491 91.4547 154.188 89.568 155.033C88.6314 155.413 87.7578 155.933 86.9767 156.575C85.8918 157.708 85.0147 159.024 84.3855 160.462C82.3772 164.154 78.1404 167.445 75.1734 170.334C71.6881 173.729 68.5786 176.813 64.6009 180.583C61.025 183.952 57.5138 187.061 54.2358 190.741C51.5279 193.773 52.5774 196.105 52.9401 196.895C55.2723 201.482 57.8118 203.101 60.8695 205.965C61.8801 206.898 62.9037 207.817 63.9272 208.737C67.8919 212.313 71.8566 215.656 75.9767 219.103C80.3819 222.73 82.1958 224.492 86.1216 228.017C88.5989 230.292 90.6636 232.979 92.2241 235.959C99.0262 237.086 105.712 226.682 99.8814 214.516C98.9224 212.548 97.472 210.862 95.6705 209.618C88.4927 204.501 74.409 194.122 74.409 194.122Z" fill="#FFA8A7"></path><path d="M74.4087 194.123C72.2867 196.817 69.4356 198.845 66.1943 199.966C66.1943 199.966 70.5347 201.002 76.3652 195.574L74.4087 194.123Z" fill="#F28F8F"></path><path d="M99.0787 210.914C97.4851 209.813 93.6111 207.468 85.8761 202.518C85.8761 202.518 87.0681 205.019 85.1894 211.303C83.3107 217.587 79.346 221.564 76.8584 222.018C76.8584 222.018 81.1859 225.438 85.1764 229.299C89.167 233.16 92.445 235.894 94.7513 240.377C94.7513 240.377 100.452 238.913 101.748 229.247C102.655 222.471 102.111 214.516 99.0787 210.914Z" fill="#455A64"></path><path d="M142.353 179.793C143.492 177.386 143.993 174.726 143.81 172.07C143.626 169.413 142.763 166.848 141.303 164.621C136.393 157.637 128.114 154.255 118.966 154.359H116.129C103.781 154.566 92.5611 165.165 92.3408 177.098C92.3408 185.493 92.3408 193.254 96.9663 198.981C101.229 204.306 107.876 206.055 113.486 206.911C124.214 208.543 136.263 207.299 141.135 199.992C141.135 199.992 134.657 201.287 135.473 194.576C135.589 193.514 134.579 192.347 132.804 191.143C134.047 188.989 135.51 186.97 137.17 185.118C138.997 183.291 141.109 182.267 142.353 179.793Z" fill="#263238"></path><path d="M139.152 185.921C139.087 198.424 135.084 201.572 133.076 202.505C131.067 203.438 127.129 202.946 123.307 202.389L123.436 209.891C123.436 209.891 127.906 214.412 127.647 217.859C127.388 221.305 120.806 221.746 115.818 218.52C113.07 216.7 110.577 214.521 108.407 212.041C107.992 211.561 107.759 210.952 107.746 210.318L107.435 192.684C107.435 192.684 105.388 194.926 101.656 192.464C100.85 191.971 100.155 191.316 99.6158 190.541C99.0764 189.765 98.704 188.886 98.5225 187.959C98.341 187.032 98.3542 186.077 98.5613 185.155C98.7685 184.233 99.165 183.365 99.7258 182.604C100.253 182.092 100.886 181.701 101.581 181.46C102.275 181.218 103.014 181.132 103.745 181.208C104.477 181.283 105.183 181.518 105.814 181.896C106.444 182.274 106.984 182.785 107.396 183.395C108.536 185.519 108.433 187.022 109.987 186.776C111.542 186.53 111.607 184.846 111.71 183.641C111.814 182.436 111.71 182.047 111.866 180.466C115.559 179.676 119.381 174.532 119.808 170.775C122.31 172.005 125.067 172.627 127.854 172.589C131.987 172.304 134.125 171.475 136.159 168.495C136.644 169.176 137.032 169.922 137.312 170.71C137.888 172.306 138.322 173.949 138.608 175.621C139.07 179.034 139.252 182.479 139.152 185.921Z" fill="#FFA8A7"></path><path d="M123.306 202.389C119.277 201.922 110.971 199.694 109.624 196.455C110.169 198.099 111.204 199.537 112.591 200.575C115.105 202.648 123.345 204.889 123.345 204.889L123.306 202.389Z" fill="#F28F8F"></path><path d="M127.362 195.651C127.369 195.977 127.28 196.298 127.105 196.573C126.93 196.848 126.678 197.065 126.379 197.196C126.081 197.327 125.75 197.367 125.429 197.31C125.108 197.253 124.811 197.102 124.576 196.876C124.341 196.65 124.179 196.36 124.109 196.041C124.04 195.723 124.066 195.391 124.186 195.088C124.305 194.784 124.512 194.523 124.78 194.338C125.047 194.152 125.364 194.05 125.69 194.045C126.125 194.038 126.544 194.203 126.857 194.504C127.17 194.805 127.352 195.217 127.362 195.651Z" fill="#B16668"></path><path d="M125.25 183.343C125.272 183.573 125.247 183.804 125.178 184.025C125.11 184.245 124.998 184.45 124.85 184.627C124.702 184.804 124.52 184.95 124.315 185.056C124.11 185.163 123.887 185.228 123.657 185.247C123.302 185.285 122.945 185.216 122.63 185.049C122.315 184.883 122.057 184.626 121.889 184.311C121.722 183.997 121.652 183.64 121.688 183.285C121.725 182.931 121.867 182.595 122.095 182.322C122.324 182.049 122.629 181.85 122.972 181.751C123.314 181.653 123.678 181.659 124.017 181.768C124.356 181.878 124.655 182.086 124.874 182.367C125.094 182.647 125.225 182.987 125.25 183.343Z" fill="#263238"></path><path d="M136.937 182.604C136.969 183.026 136.833 183.444 136.559 183.767C136.285 184.09 135.894 184.291 135.472 184.327C135.26 184.353 135.044 184.333 134.84 184.269C134.636 184.204 134.448 184.096 134.29 183.952C134.131 183.808 134.005 183.632 133.921 183.435C133.837 183.238 133.796 183.025 133.801 182.811C133.78 182.602 133.801 182.39 133.862 182.188C133.924 181.987 134.026 181.799 134.161 181.638C134.296 181.476 134.462 181.343 134.65 181.246C134.837 181.15 135.042 181.091 135.252 181.075C135.678 181.058 136.093 181.208 136.408 181.494C136.723 181.78 136.913 182.179 136.937 182.604Z" fill="#263238"></path><path d="M128.865 180.985L130.109 191.428L135.46 189.199L128.865 180.985Z" fill="#F28F8F"></path><path d="M119.005 178.834L122.114 175.88C122.502 176.31 122.708 176.874 122.691 177.453C122.674 178.032 122.435 178.582 122.024 178.989C121.819 179.184 121.576 179.335 121.311 179.433C121.046 179.531 120.763 179.574 120.481 179.559C120.199 179.544 119.922 179.473 119.668 179.348C119.415 179.223 119.189 179.048 119.005 178.834Z" fill="#263238"></path><path d="M134.565 174.921L138.012 177.512C137.853 177.746 137.648 177.945 137.41 178.097C137.171 178.249 136.904 178.351 136.625 178.396C136.346 178.44 136.061 178.428 135.787 178.358C135.513 178.289 135.256 178.164 135.032 177.992C134.58 177.633 134.281 177.118 134.195 176.548C134.108 175.978 134.241 175.397 134.565 174.921Z" fill="#263238"></path><path d="M84.8905 80.0149C87.3749 79.5412 89.9145 79.4277 92.4312 79.678C94.8363 79.889 97.184 80.5297 99.3629 81.5697C101.453 82.5676 103.302 84.0089 104.779 85.7935C106.336 87.7034 107.372 89.9845 107.785 92.4142C108.173 94.3208 108.173 96.2862 107.785 98.1928C107.436 99.8523 106.842 101.451 106.023 102.935C105.227 104.379 104.303 105.749 103.263 107.029C102.226 108.325 101.242 109.517 100.322 110.67C99.4419 111.755 98.6613 112.917 97.9895 114.142C97.372 115.23 97.0713 116.469 97.1214 117.718C97.129 118.299 96.9814 118.872 96.6939 119.377C96.5582 119.615 96.3719 119.821 96.1481 119.98C95.9242 120.139 95.6683 120.247 95.3982 120.297L89.2957 121.45C89.0059 121.507 88.7074 121.506 88.418 121.446C88.1286 121.386 87.8543 121.268 87.6114 121.1C87.3586 120.955 87.145 120.751 86.9892 120.505C86.8334 120.258 86.7401 119.978 86.7174 119.688C86.4199 117.771 86.5169 115.813 87.0024 113.935C87.4631 112.261 88.1381 110.654 89.0107 109.154C89.8543 107.725 90.8211 106.372 91.9 105.112C92.9754 103.816 93.9471 102.65 94.8411 101.51C95.663 100.486 96.3752 99.3783 96.966 98.2058C97.4741 97.1882 97.6335 96.0318 97.4194 94.9148C97.2473 93.9303 96.8376 93.0026 96.2257 92.2124C95.6138 91.4221 94.8183 90.7932 93.9082 90.3801C91.6508 89.3541 89.1151 89.1124 86.7045 89.6934C82.1611 90.5571 79.2459 93.468 77.9588 98.426C77.8456 98.9487 77.644 99.4482 77.3628 99.9031C77.0035 100.318 76.4974 100.578 75.9506 100.629L69.4724 101.859C69.0249 101.939 68.5638 101.852 68.1767 101.613C67.9732 101.479 67.8001 101.303 67.6685 101.098C67.5368 100.893 67.4496 100.662 67.4123 100.421C67.1325 98.3775 67.3548 96.2963 68.0601 94.3577C68.7936 92.1186 69.9165 90.0264 71.377 88.1775C73.0146 86.1529 74.9654 84.4033 77.1555 82.9949C79.516 81.5088 82.1432 80.4966 84.8905 80.0149ZM96.7198 125.039C97.2959 124.939 97.8882 125.067 98.3716 125.396C98.8551 125.725 99.1919 126.228 99.3111 126.801L100.607 133.875C100.666 134.158 100.665 134.451 100.605 134.734C100.545 135.018 100.426 135.285 100.257 135.52C100.098 135.761 99.8919 135.968 99.6516 136.128C99.4113 136.289 99.1413 136.399 98.8576 136.453L91.9518 137.749C91.6662 137.808 91.3714 137.808 91.086 137.748C90.8005 137.687 90.5307 137.569 90.2934 137.399C90.0524 137.24 89.8457 137.034 89.6854 136.794C89.5252 136.553 89.4147 136.283 89.3605 136L88.0649 128.926C88.0107 128.641 88.015 128.348 88.0773 128.066C88.1397 127.783 88.2589 127.515 88.4277 127.28C88.5828 127.035 88.7874 126.826 89.0285 126.665C89.2695 126.505 89.5415 126.396 89.827 126.347L96.7198 125.039Z" fill="#048DA9"></path><path d="M150.735 109.206C152.263 110.053 153.659 111.118 154.881 112.367C156.068 113.538 157.03 114.917 157.718 116.436C158.379 117.888 158.719 119.466 158.716 121.061C158.714 122.762 158.268 124.432 157.42 125.907C156.786 127.088 155.928 128.136 154.894 128.99C153.968 129.709 152.942 130.29 151.849 130.714C150.787 131.129 149.69 131.45 148.571 131.672L145.41 132.294C144.461 132.477 143.533 132.75 142.637 133.111C141.831 133.41 141.126 133.931 140.603 134.613C140.348 134.927 140.012 135.165 139.631 135.3C139.452 135.367 139.261 135.394 139.07 135.378C138.88 135.362 138.695 135.305 138.53 135.209L134.785 133.111C134.421 132.911 134.151 132.576 134.034 132.178C133.97 131.988 133.951 131.787 133.978 131.589C134.005 131.392 134.077 131.203 134.189 131.037C134.879 129.892 135.796 128.9 136.884 128.122C137.87 127.434 138.942 126.876 140.072 126.464C141.155 126.078 142.269 125.784 143.401 125.583C144.529 125.388 145.578 125.194 146.563 124.987C147.451 124.801 148.32 124.528 149.154 124.171C149.875 123.853 150.474 123.312 150.864 122.629C151.205 122.028 151.394 121.353 151.417 120.662C151.439 119.972 151.294 119.286 150.994 118.664C150.254 117.121 149.018 115.871 147.483 115.114C146.161 114.35 144.635 114.012 143.114 114.147C141.593 114.281 140.151 114.881 138.983 115.865C138.694 116.1 138.365 116.28 138.012 116.397C137.641 116.458 137.26 116.375 136.949 116.163L132.959 113.935C132.676 113.776 132.464 113.517 132.363 113.209C132.312 113.048 132.296 112.879 132.317 112.711C132.337 112.543 132.392 112.382 132.479 112.238C133.236 111.033 134.271 110.029 135.498 109.31C136.895 108.467 138.43 107.879 140.033 107.573C141.787 107.229 143.585 107.173 145.358 107.405C147.249 107.654 149.075 108.265 150.735 109.206ZM137.079 138.293C137.255 138.391 137.409 138.522 137.534 138.68C137.659 138.838 137.75 139.019 137.804 139.213C137.862 139.404 137.88 139.605 137.858 139.803C137.835 140.001 137.773 140.193 137.675 140.366L135.252 144.707C135.055 145.06 134.727 145.321 134.338 145.432C133.95 145.544 133.533 145.497 133.179 145.303L128.942 142.932C128.764 142.839 128.608 142.709 128.485 142.55C128.362 142.391 128.274 142.207 128.229 142.012C128.168 141.822 128.146 141.621 128.166 141.423C128.187 141.224 128.248 141.032 128.346 140.858L130.769 136.518C130.867 136.344 130.999 136.191 131.157 136.069C131.315 135.947 131.496 135.857 131.689 135.805C131.879 135.745 132.081 135.725 132.279 135.748C132.478 135.77 132.67 135.834 132.842 135.935L137.079 138.293Z" fill="#048DA9"></path><g opacity="0.2"><path d="M150.735 109.206C152.263 110.053 153.659 111.118 154.881 112.367C156.068 113.538 157.03 114.917 157.718 116.436C158.379 117.888 158.719 119.466 158.716 121.061C158.714 122.762 158.268 124.432 157.42 125.907C156.786 127.088 155.928 128.136 154.894 128.99C153.968 129.709 152.942 130.29 151.849 130.714C150.787 131.129 149.69 131.45 148.571 131.672L145.41 132.294C144.461 132.477 143.533 132.75 142.637 133.111C141.831 133.41 141.126 133.931 140.603 134.613C140.348 134.927 140.012 135.165 139.631 135.3C139.452 135.367 139.261 135.394 139.07 135.378C138.88 135.362 138.695 135.305 138.53 135.209L134.785 133.111C134.421 132.911 134.151 132.576 134.034 132.178C133.97 131.988 133.951 131.787 133.978 131.589C134.005 131.392 134.077 131.203 134.189 131.037C134.879 129.892 135.796 128.9 136.884 128.122C137.87 127.434 138.942 126.876 140.072 126.464C141.155 126.078 142.269 125.784 143.401 125.583C144.529 125.388 145.578 125.194 146.563 124.987C147.451 124.801 148.32 124.528 149.154 124.171C149.875 123.853 150.474 123.312 150.864 122.629C151.205 122.028 151.394 121.353 151.417 120.662C151.439 119.972 151.294 119.286 150.994 118.664C150.254 117.121 149.018 115.871 147.483 115.114C146.161 114.35 144.635 114.012 143.114 114.147C141.593 114.281 140.151 114.881 138.983 115.865C138.694 116.1 138.365 116.28 138.012 116.397C137.641 116.458 137.26 116.375 136.949 116.163L132.959 113.935C132.676 113.776 132.464 113.517 132.363 113.209C132.312 113.048 132.296 112.879 132.317 112.711C132.337 112.543 132.392 112.382 132.479 112.238C133.236 111.033 134.271 110.029 135.498 109.31C136.895 108.467 138.43 107.879 140.033 107.573C141.787 107.229 143.585 107.173 145.358 107.405C147.249 107.654 149.075 108.265 150.735 109.206ZM137.079 138.293C137.255 138.391 137.409 138.522 137.534 138.68C137.659 138.838 137.75 139.019 137.804 139.213C137.862 139.404 137.88 139.605 137.858 139.803C137.835 140.001 137.773 140.193 137.675 140.366L135.252 144.707C135.055 145.06 134.727 145.321 134.338 145.432C133.95 145.544 133.533 145.497 133.179 145.303L128.942 142.932C128.764 142.839 128.608 142.709 128.485 142.55C128.362 142.391 128.274 142.207 128.229 142.012C128.168 141.822 128.146 141.621 128.166 141.423C128.187 141.224 128.248 141.032 128.346 140.858L130.769 136.518C130.867 136.344 130.999 136.191 131.157 136.069C131.315 135.947 131.496 135.857 131.689 135.805C131.879 135.745 132.081 135.725 132.279 135.748C132.478 135.77 132.67 135.834 132.842 135.935L137.079 138.293Z" fill="black"></path></g><path d="M59.4698 156.782C59.6423 156.619 59.846 156.492 60.0687 156.41C60.2913 156.328 60.5283 156.291 60.7655 156.303C61.0086 156.306 61.2486 156.358 61.4712 156.456C61.6938 156.554 61.8944 156.696 62.0611 156.873L66.0517 161.2C66.2159 161.377 66.3435 161.584 66.4272 161.81C66.5109 162.036 66.5491 162.276 66.5394 162.517C66.5298 162.758 66.4726 162.995 66.3711 163.213C66.2696 163.432 66.1258 163.629 65.948 163.791L61.7242 167.678C61.5477 167.842 61.3404 167.97 61.1144 168.054C60.8883 168.138 60.6479 168.176 60.407 168.166C60.1661 168.156 59.9295 168.099 59.7109 167.998C59.4922 167.896 59.2958 167.752 59.1329 167.575L55.1424 163.247C54.9766 163.072 54.8475 162.864 54.7628 162.638C54.6781 162.412 54.6395 162.171 54.6491 161.93C54.6588 161.688 54.7165 161.451 54.819 161.233C54.9215 161.014 55.0667 160.818 55.246 160.656L59.4698 156.782ZM31.743 130.675C33.2581 129.259 34.9685 128.068 36.8219 127.138C38.582 126.248 40.4858 125.678 42.445 125.453C44.3258 125.246 46.2292 125.44 48.0293 126.023C49.9417 126.676 51.6517 127.815 52.9916 129.327C54.1128 130.466 54.9939 131.819 55.5829 133.305C56.0581 134.608 56.3375 135.975 56.4121 137.36C56.486 138.709 56.4427 140.061 56.2825 141.403C56.1141 142.698 55.9586 143.994 55.8161 145.199C55.6755 146.333 55.6365 147.478 55.6995 148.619C55.7426 149.645 56.0749 150.638 56.6583 151.483C56.9094 151.87 57.0525 152.317 57.0729 152.778C57.0841 153.005 57.0433 153.232 56.9535 153.441C56.8636 153.65 56.7272 153.835 56.5546 153.983L52.8231 157.443C52.4692 157.764 52.005 157.935 51.5275 157.922C51.2906 157.931 51.0551 157.882 50.8409 157.781C50.6266 157.679 50.44 157.528 50.2966 157.339C49.26 156.134 48.4757 154.733 47.9904 153.219C47.5846 151.859 47.3581 150.452 47.3167 149.034C47.2762 147.665 47.3542 146.295 47.5499 144.94C47.7442 143.644 47.8997 142.348 48.0293 141.182C48.1453 140.11 48.1453 139.028 48.0293 137.956C47.9447 137.033 47.5576 136.163 46.928 135.482C46.3801 134.874 45.6929 134.41 44.9254 134.128C44.1579 133.846 43.3333 133.754 42.5228 133.862C40.5236 134.121 38.6655 135.031 37.2365 136.453C34.4552 139.045 33.6908 142.331 34.9432 146.313C35.0969 146.728 35.1758 147.167 35.1765 147.609C35.1444 147.827 35.0695 148.036 34.9561 148.225C34.8427 148.414 34.693 148.579 34.5157 148.71L30.538 152.39C30.2601 152.658 29.888 152.807 29.5015 152.804C29.3036 152.801 29.1087 152.755 28.9299 152.67C28.7512 152.585 28.5926 152.463 28.465 152.312C27.3636 151.038 26.5937 149.511 26.2235 147.868C25.7839 145.988 25.683 144.044 25.9255 142.128C26.1916 140.028 26.7954 137.985 27.7135 136.078C28.6914 134.031 30.0603 132.196 31.743 130.675Z" fill="#048DA9"></path><g opacity="0.6"><path d="M59.4698 156.782C59.6423 156.619 59.846 156.492 60.0687 156.41C60.2913 156.328 60.5283 156.291 60.7655 156.303C61.0086 156.306 61.2486 156.358 61.4712 156.456C61.6938 156.554 61.8944 156.696 62.0611 156.873L66.0517 161.2C66.2159 161.377 66.3435 161.584 66.4272 161.81C66.5109 162.036 66.5491 162.276 66.5394 162.517C66.5298 162.758 66.4726 162.995 66.3711 163.213C66.2696 163.432 66.1258 163.629 65.948 163.791L61.7242 167.678C61.5477 167.842 61.3404 167.97 61.1144 168.054C60.8883 168.138 60.6479 168.176 60.407 168.166C60.1661 168.156 59.9295 168.099 59.7109 167.998C59.4922 167.896 59.2958 167.752 59.1329 167.575L55.1424 163.247C54.9766 163.072 54.8475 162.864 54.7628 162.638C54.6781 162.412 54.6395 162.171 54.6491 161.93C54.6588 161.688 54.7165 161.451 54.819 161.233C54.9215 161.014 55.0667 160.818 55.246 160.656L59.4698 156.782ZM31.743 130.675C33.2581 129.259 34.9685 128.068 36.8219 127.138C38.582 126.248 40.4858 125.678 42.445 125.453C44.3258 125.246 46.2292 125.44 48.0293 126.023C49.9417 126.676 51.6517 127.815 52.9916 129.327C54.1128 130.466 54.9939 131.819 55.5829 133.305C56.0581 134.608 56.3375 135.975 56.4121 137.36C56.486 138.709 56.4427 140.061 56.2825 141.403C56.1141 142.698 55.9586 143.994 55.8161 145.199C55.6755 146.333 55.6365 147.478 55.6995 148.619C55.7426 149.645 56.0749 150.638 56.6583 151.483C56.9094 151.87 57.0525 152.317 57.0729 152.778C57.0841 153.005 57.0433 153.232 56.9535 153.441C56.8636 153.65 56.7272 153.835 56.5546 153.983L52.8231 157.443C52.4692 157.764 52.005 157.935 51.5275 157.922C51.2906 157.931 51.0551 157.882 50.8409 157.781C50.6266 157.679 50.44 157.528 50.2966 157.339C49.26 156.134 48.4757 154.733 47.9904 153.219C47.5846 151.859 47.3581 150.452 47.3167 149.034C47.2762 147.665 47.3542 146.295 47.5499 144.94C47.7442 143.644 47.8997 142.348 48.0293 141.182C48.1453 140.11 48.1453 139.028 48.0293 137.956C47.9447 137.033 47.5576 136.163 46.928 135.482C46.3801 134.874 45.6929 134.41 44.9254 134.128C44.1579 133.846 43.3333 133.754 42.5228 133.862C40.5236 134.121 38.6655 135.031 37.2365 136.453C34.4552 139.045 33.6908 142.331 34.9432 146.313C35.0969 146.728 35.1758 147.167 35.1765 147.609C35.1444 147.827 35.0695 148.036 34.9561 148.225C34.8427 148.414 34.693 148.579 34.5157 148.71L30.538 152.39C30.2601 152.658 29.888 152.807 29.5015 152.804C29.3036 152.801 29.1087 152.755 28.9299 152.67C28.7512 152.585 28.5926 152.463 28.465 152.312C27.3636 151.038 26.5937 149.511 26.2235 147.868C25.7839 145.988 25.683 144.044 25.9255 142.128C26.1916 140.028 26.7954 137.985 27.7135 136.078C28.6914 134.031 30.0603 132.196 31.743 130.675Z" fill="white"></path></g><path d="M323.303 247.179C319.611 245.067 304.063 236.075 298.777 233.018C297.727 232.422 297.066 232.033 297.015 231.994C294.386 230.529 291.315 230.069 288.373 230.699C285.847 231.211 283.428 232.153 281.221 233.484C280.858 233.691 280.495 233.938 280.145 234.171C274.172 237.941 269.042 243.875 264.766 252.038C260.412 259.989 258.077 268.887 257.964 277.951C257.964 286.537 260.253 292.561 264.831 296.025C265.294 296.37 265.779 296.686 266.282 296.971C270.57 299.407 292.078 311.871 292.558 312.143H292.674C292.145 311.853 291.638 311.524 291.158 311.158C286.572 307.703 284.283 301.683 284.291 293.097C284.404 284.033 286.74 275.135 291.094 267.184C295.611 258.546 301.092 252.357 307.535 248.617C313.668 245.076 318.963 244.614 323.42 247.231L323.303 247.179Z" fill="#048DA9"></path><path opacity="0.4" d="M323.42 247.257C318.963 244.666 313.668 245.123 307.535 248.63C301.549 252.085 296.388 257.7 292.052 265.474L265.725 250.224C269.793 242.955 274.6 237.604 280.132 234.119C280.482 233.899 280.845 233.64 281.208 233.432C283.412 232.1 285.833 231.161 288.36 230.66C291.302 230.022 294.375 230.483 297.001 231.955L298.764 232.979C304.05 236.024 319.598 245.015 323.29 247.127L323.42 247.257Z" fill="black"></path><path opacity="0.3" d="M292.674 312.104H292.558C292.078 311.832 270.532 299.368 266.282 296.932C265.779 296.647 265.294 296.331 264.831 295.986C260.253 292.531 257.964 286.511 257.964 277.925C258.073 268.86 260.409 259.962 264.766 252.012C265.077 251.403 265.401 250.807 265.738 250.237L292.052 265.435C291.728 266.005 291.404 266.601 291.094 267.197C286.74 275.148 284.404 284.046 284.291 293.11C284.291 301.696 286.58 307.716 291.158 311.171C291.64 311.519 292.147 311.831 292.674 312.104Z" fill="black"></path><path d="M311.824 24.8465C324.599 17.4613 335.474 14.3215 344.448 15.4271C348.101 15.8635 351.627 17.0359 354.813 18.8736C354.724 18.8265 354.638 18.7746 354.554 18.7181C351.471 16.9819 332.891 6.26692 328.641 3.76633C325.399 1.87163 321.799 0.671527 318.069 0.24217C309.086 -0.85481 298.207 2.28065 285.432 9.64856C265.565 21.1107 249.585 37.9541 237.493 60.1787C225.4 82.4034 219.418 105.09 219.548 128.239L245.863 143.437C245.681 120.271 251.663 97.5797 263.807 75.3637C275.952 53.1477 291.957 36.3086 311.824 24.8465Z" fill="#048DA9"></path><path opacity="0.2" d="M354.607 18.7309C351.467 16.982 348.017 15.8599 344.449 15.427C335.483 14.3214 324.608 17.4612 311.825 24.8464C291.958 36.2999 275.978 53.1433 263.886 75.3766C263.38 76.2965 262.888 77.2294 262.409 78.1493L236.029 62.9254C236.509 62.0055 237.001 61.0727 237.506 60.1527C249.651 37.9454 265.63 21.102 285.445 9.62256C298.238 2.24601 309.117 -0.889448 318.083 0.21617C321.814 0.649884 325.414 1.8544 328.655 3.75328C332.944 6.27979 351.523 17.0077 354.607 18.7309Z" fill="black"></path><path opacity="0.3" d="M262.343 78.1233C251.192 99.4497 245.703 121.212 245.876 143.411L219.561 128.213C219.397 106.006 224.886 84.2431 236.029 62.9254L262.343 78.1233Z" fill="black"></path><path d="M329.704 67.9138C324.927 65.3743 318.548 66.3676 310.567 70.8937C310.298 75.6423 309.319 80.3238 307.665 84.7831C305.67 90.1557 299.865 101.238 290.251 118.029C280.292 135.391 273.088 151.971 268.64 167.769C264.228 183.367 261.987 199.498 261.98 215.708L262.11 223.78L280.068 234.145L288.438 238.978L288.295 230.893V230.789C288.324 214.632 290.564 198.555 294.955 183.006C299.403 167.208 306.611 150.632 316.579 133.279C326.184 116.488 331.984 105.401 333.979 100.02C335.972 94.6999 336.99 89.0646 336.985 83.3838C336.985 75.6531 334.558 70.4964 329.704 67.9138Z" fill="#048DA9"></path><path opacity="0.3" d="M331.401 105.837C328.43 112.022 323.489 121.152 316.579 133.227C306.602 150.589 299.394 167.169 294.955 182.967C290.56 198.528 288.319 214.619 288.295 230.789V230.997L288.438 239.081L280.068 234.262L262.11 223.896L261.98 215.812C261.988 199.602 264.229 183.471 268.64 167.873C273.088 152.074 280.292 135.495 290.251 118.133C297.162 106.04 302.111 96.9145 305.1 90.7559L331.401 105.837Z" fill="black"></path><path opacity="0.4" d="M336.985 83.3838C336.988 89.0464 335.974 94.6636 333.992 99.968C333.435 101.484 332.567 103.44 331.401 105.837L305.1 90.6523C306.248 88.2511 307.112 86.2946 307.691 84.7831C309.345 80.3238 310.324 75.6423 310.593 70.8937C318.574 66.3676 324.953 65.3743 329.73 67.9138C334.506 70.4532 336.925 75.6099 336.985 83.3838Z" fill="black"></path><path d="M281.492 122.836L245.875 143.411C245.694 120.245 251.675 97.5537 263.82 75.3377C275.964 53.1217 291.944 36.2783 311.759 24.8075C324.534 17.4224 335.409 14.2826 344.383 15.3882C353.358 16.4938 360.54 21.4129 365.93 30.1456C371.328 38.8782 374.027 49.7703 374.027 62.8218C373.974 70.3991 373.105 77.9487 371.436 85.3401C369.417 94.1818 366.692 102.847 363.286 111.253C361.11 116.747 355.897 126.887 347.648 141.675C339.762 155.771 334.821 165.363 332.826 170.451C330.611 176.49 328.967 182.724 327.915 189.07C326.347 198.555 325.481 208.142 325.324 217.755L288.489 239.03L288.346 230.945C288.354 214.735 290.595 198.604 295.006 183.006C299.454 167.208 306.662 150.632 316.63 133.279C326.235 116.487 332.036 105.401 334.031 100.02C336.006 94.6965 337.006 89.0614 336.985 83.3837C336.985 75.6098 334.562 70.4531 329.716 67.9137C324.871 65.3742 318.366 66.4366 310.204 71.101C301.86 75.9208 295.015 83.1505 289.668 92.7901C284.439 101.95 281.626 112.29 281.492 122.836Z" fill="#048DA9"></path><path d="M307.471 248.708C314.078 244.882 319.719 244.644 324.392 247.995C329.065 251.347 331.401 257.311 331.401 265.888C331.26 275.002 328.879 283.941 324.47 291.918C319.857 300.685 314.281 306.956 307.743 310.731C301.204 314.505 295.65 314.661 291.081 311.197C286.503 307.742 284.214 301.717 284.214 293.123C284.327 284.059 286.662 275.161 291.016 267.21C295.551 258.589 301.036 252.422 307.471 248.708Z" fill="#048DA9"></path></svg>