<svg xmlns="http://www.w3.org/2000/svg" width="206" height="53" viewBox="0 0 206 53" fill="none"><path d="M81.0438 49.4885H81.5859C81.519 50.1711 81.336 50.7467 81.0371 51.2151C80.7382 51.6791 80.3367 52.0316 79.8325 52.2725C79.3328 52.509 78.7439 52.6272 78.0657 52.6272C77.5259 52.6272 77.0351 52.5246 76.5934 52.3194C76.1562 52.1097 75.7792 51.8152 75.4624 51.436C75.1501 51.0523 74.9092 50.595 74.7397 50.0641C74.5701 49.5331 74.4854 48.9465 74.4854 48.304V46.9388C74.4854 46.2918 74.5701 45.7051 74.7397 45.1787C74.9092 44.6478 75.1501 44.1927 75.4624 43.8135C75.7792 43.4298 76.1584 43.1353 76.6001 42.9301C77.0463 42.7204 77.5437 42.6155 78.0925 42.6155C78.7573 42.6155 79.3395 42.7338 79.8392 42.9702C80.3389 43.2067 80.7382 43.5591 81.0371 44.0276C81.336 44.4916 81.519 45.0649 81.5859 45.7475H81.0438C80.9769 45.1809 80.823 44.7035 80.582 44.3154C80.3456 43.9228 80.0199 43.6238 79.605 43.4186C79.19 43.2134 78.6859 43.1108 78.0925 43.1108C77.624 43.1108 77.2024 43.2022 76.8277 43.3851C76.4529 43.5636 76.1317 43.8224 75.864 44.1615C75.5963 44.4961 75.3888 44.8976 75.2416 45.3661C75.0988 45.8301 75.0274 46.3498 75.0274 46.9254V48.304C75.0274 48.8706 75.0988 49.3904 75.2416 49.8633C75.3844 50.3318 75.5874 50.7355 75.8506 51.0746C76.1138 51.4092 76.4328 51.6702 76.8076 51.8576C77.1823 52.0405 77.6017 52.132 78.0657 52.132C78.6591 52.132 79.1655 52.0383 79.5849 51.8509C80.0043 51.6591 80.3344 51.3668 80.5753 50.9742C80.8207 50.5816 80.9769 50.0864 81.0438 49.4885Z" fill="white"></path><path d="M90.7543 46.9722V48.2705C90.7543 48.9219 90.6673 49.5153 90.4933 50.0507C90.3238 50.5861 90.0762 51.0456 89.7505 51.4293C89.4248 51.813 89.0344 52.1097 88.5793 52.3194C88.1243 52.5246 87.6112 52.6272 87.0401 52.6272C86.4824 52.6272 85.9738 52.5246 85.5143 52.3194C85.0547 52.1097 84.6599 51.813 84.3297 51.4293C84.004 51.0456 83.752 50.5861 83.5735 50.0507C83.3995 49.5153 83.3125 48.9219 83.3125 48.2705V46.9722C83.3125 46.3164 83.3995 45.723 83.5735 45.1921C83.752 44.6567 84.004 44.1971 84.3297 43.8135C84.6554 43.4298 85.0458 43.1353 85.5009 42.9301C85.9604 42.7204 86.469 42.6155 87.0267 42.6155C87.5978 42.6155 88.1109 42.7204 88.566 42.9301C89.021 43.1353 89.4114 43.4298 89.7371 43.8135C90.0673 44.1971 90.3193 44.6567 90.4933 45.1921C90.6673 45.723 90.7543 46.3164 90.7543 46.9722ZM90.219 48.2705V46.9588C90.219 46.3878 90.1476 45.868 90.0048 45.3995C89.862 44.9266 89.6523 44.5206 89.3757 44.1815C89.1036 43.8425 88.7712 43.5815 88.3786 43.3985C87.986 43.2111 87.5353 43.1175 87.0267 43.1175C86.5315 43.1175 86.0876 43.2111 85.695 43.3985C85.3023 43.5815 84.97 43.8425 84.6978 44.1815C84.4257 44.5206 84.2182 44.9266 84.0754 45.3995C83.9327 45.868 83.8613 46.3878 83.8613 46.9588V48.2705C83.8613 48.8461 83.9327 49.3703 84.0754 49.8432C84.2227 50.3161 84.4323 50.7221 84.7045 51.0612C84.9767 51.4003 85.309 51.6635 85.7017 51.8509C86.0987 52.0338 86.5449 52.1253 87.0401 52.1253C87.5487 52.1253 87.9993 52.0338 88.392 51.8509C88.7846 51.6635 89.117 51.4003 89.3891 51.0612C89.6613 50.7221 89.8665 50.3161 90.0048 49.8432C90.1476 49.3703 90.219 48.8461 90.219 48.2705Z" fill="white"></path><path d="M95.7803 51.4427L98.9725 42.7494H99.5614L95.9275 52.4934H95.459L95.7803 51.4427ZM92.307 42.7494L95.4992 51.4427L95.8204 52.4934H95.352L91.718 42.7494H92.307Z" fill="white"></path><path d="M101.864 42.7494V52.4934H101.321V42.7494H101.864Z" fill="white"></path><path d="M107.371 52.4934H105.062L105.076 51.9981H107.371C108.072 51.9981 108.687 51.8353 109.218 51.5096C109.754 51.1839 110.173 50.7333 110.477 50.1578C110.78 49.5778 110.932 48.9108 110.932 48.1568V47.0659C110.932 46.5038 110.845 45.9885 110.671 45.52C110.497 45.0515 110.251 44.6478 109.934 44.3087C109.622 43.9696 109.25 43.7086 108.817 43.5257C108.384 43.3383 107.911 43.2446 107.398 43.2446H105.022V42.7494H107.398C107.983 42.7494 108.522 42.8542 109.018 43.0639C109.517 43.2691 109.95 43.5636 110.316 43.9473C110.682 44.3265 110.965 44.7838 111.166 45.3192C111.371 45.8501 111.474 46.4391 111.474 47.086V48.1568C111.474 48.8037 111.371 49.3948 111.166 49.9302C110.965 50.4611 110.68 50.9184 110.309 51.3021C109.943 51.6814 109.511 51.9758 109.011 52.1855C108.516 52.3908 107.969 52.4934 107.371 52.4934ZM105.23 42.7494V52.4934H104.688V42.7494H105.23Z" fill="white"></path><path d="M115.917 47.8556V48.3441H112.752V47.8556H115.917Z" fill="white"></path><path d="M120.89 42.7159V52.4934H120.354V43.4052L117.617 44.4291V43.8938L120.789 42.7159H120.89Z" fill="white"></path><path d="M125.949 52.1052H126.143C126.848 52.1052 127.448 52.0004 127.943 51.7907C128.443 51.581 128.849 51.2843 129.161 50.9006C129.478 50.5124 129.71 50.0507 129.857 49.5153C130.005 48.9799 130.078 48.3843 130.078 47.7285V46.4435C130.078 45.8903 130.018 45.4062 129.898 44.9913C129.782 44.5719 129.612 44.2239 129.389 43.9473C129.17 43.6662 128.905 43.4565 128.593 43.3182C128.28 43.1755 127.928 43.1041 127.535 43.1041C127.169 43.1041 126.837 43.1844 126.538 43.345C126.244 43.5056 125.994 43.7265 125.789 44.0075C125.583 44.2841 125.425 44.5987 125.313 44.9511C125.202 45.2991 125.146 45.665 125.146 46.0487C125.146 46.4056 125.197 46.7514 125.3 47.086C125.403 47.4206 125.552 47.7218 125.748 47.9895C125.949 48.2527 126.192 48.4624 126.478 48.6185C126.763 48.7702 127.091 48.8461 127.462 48.8461C127.912 48.8461 128.305 48.7613 128.639 48.5918C128.979 48.4222 129.26 48.2058 129.483 47.9426C129.71 47.6794 129.882 47.4005 129.998 47.1061C130.114 46.8116 130.174 46.5372 130.179 46.2829L130.466 46.2695C130.466 46.7023 130.388 47.1038 130.232 47.4741C130.081 47.8445 129.866 48.1701 129.59 48.4512C129.313 48.7278 128.99 48.9442 128.619 49.1004C128.254 49.2565 127.856 49.3346 127.428 49.3346C126.986 49.3346 126.592 49.2476 126.244 49.0736C125.9 48.8951 125.606 48.6542 125.36 48.3508C125.119 48.043 124.934 47.6928 124.805 47.3001C124.68 46.9075 124.617 46.4948 124.617 46.0621C124.617 45.5891 124.684 45.1452 124.818 44.7303C124.956 44.3154 125.151 43.9495 125.4 43.6328C125.655 43.316 125.96 43.0684 126.317 42.8899C126.674 42.707 127.073 42.6155 127.515 42.6155C128.015 42.6155 128.457 42.7025 128.84 42.8765C129.228 43.0461 129.552 43.2959 129.811 43.6261C130.074 43.9562 130.272 44.36 130.406 44.8374C130.54 45.3148 130.607 45.8591 130.607 46.4703V47.434C130.607 48.0541 130.553 48.6297 130.446 49.1606C130.344 49.6915 130.181 50.1689 129.958 50.5928C129.735 51.0166 129.447 51.378 129.095 51.6769C128.747 51.9758 128.327 52.2056 127.836 52.3662C127.35 52.5224 126.786 52.6004 126.143 52.6004H125.936L125.949 52.1052Z" fill="white"></path><path d="M24.8535 15.7389C24.8535 23.6238 31.2455 30.0158 39.1304 30.0158C42.012 30.0158 44.6942 29.1621 46.9379 27.6938C46.8071 27.7747 46.6719 27.8557 46.5316 27.9371C43.2879 29.1021 39.0564 30.0413 35.704 27.4574C32.972 25.3517 31.7137 22.8496 32.0491 19.4166C32.5285 14.5095 39.9756 11.5815 41.8944 11.5129C38.8253 10.2783 34.1119 13.3122 33.6024 13.683C33.3185 13.8897 33.0479 14.0874 32.7903 14.2756C30.4565 15.9803 29.1826 16.9108 28.6683 16.7668C27.6912 16.4933 27.0693 14.8937 27.0693 12.815C27.0693 9.10612 28.117 5.69671 31.478 3.7463C31.478 3.7463 38.9705 -0.913708 47.2397 9.63979C52.9846 17.5927 51.6666 22.2704 51.3264 23.165C52.6467 21.0014 53.4073 18.459 53.4073 15.7389C53.4073 7.85397 47.0154 1.46198 39.1304 1.46198C31.2455 1.46198 24.8535 7.85397 24.8535 15.7389Z" fill="white"></path><path d="M32.8029 12.3353C32.8029 13.7987 31.6165 14.9851 30.1531 14.9851C28.6897 14.9851 27.5033 13.7987 27.5033 12.3353C27.5033 10.8718 28.6897 9.68548 30.1531 9.68548C31.6165 9.68548 32.8029 10.8718 32.8029 12.3353Z" fill="white"></path><path fill-rule="evenodd" clip-rule="evenodd" d="M51.3264 23.165C51.2034 23.3665 51.0756 23.5648 50.943 23.7596C50.6101 24.2153 50.2988 24.6293 49.985 25.0134C49.1032 26.0445 48.077 26.9484 46.9379 27.6938C48.2808 26.8628 49.1416 26.0459 49.985 25.0134C50.3266 24.614 50.6466 24.1954 50.943 23.7596C51.0464 23.6182 51.1519 23.4727 51.2601 23.3228C51.2601 23.3228 51.2865 23.2699 51.3264 23.165Z" fill="white"></path><path d="M50 6.625H47V10H45V6.625H42V4.375H45V1H47V4.375H50V6.625Z" fill="white"></path><path d="M15.6368 22.4017C15.6368 21.9573 15.5714 21.5586 15.4406 21.2057C15.3098 20.8397 15.0678 20.4999 14.7147 20.1862C14.3615 19.8725 13.8514 19.5588 13.1843 19.2451C12.5304 18.9183 11.6671 18.5785 10.5946 18.2256C9.33891 17.8073 8.12904 17.3368 6.96494 16.814C5.80085 16.2781 4.76101 15.6572 3.84543 14.9514C2.92985 14.2325 2.20393 13.396 1.66766 12.4418C1.13139 11.4746 0.863261 10.3505 0.863261 9.06962C0.863261 7.84098 1.13793 6.73651 1.68728 5.75622C2.23663 4.76285 3.00179 3.91979 3.98277 3.22705C4.97683 2.52123 6.14092 1.98534 7.47505 1.61936C8.80918 1.24031 10.2676 1.05079 11.8502 1.05079C13.943 1.05079 15.7872 1.41677 17.3829 2.14872C18.9917 2.86761 20.2474 3.89365 21.1499 5.22686C22.0655 6.54699 22.5233 8.10893 22.5233 9.91268H15.676C15.676 9.19379 15.5256 8.55987 15.2248 8.0109C14.937 7.46193 14.4989 7.0306 13.9103 6.71691C13.3217 6.40321 12.5827 6.24636 11.6933 6.24636C10.83 6.24636 10.1041 6.37707 9.51549 6.63848C8.9269 6.8999 8.48219 7.2528 8.18136 7.6972C7.88052 8.12853 7.73011 8.60561 7.73011 9.12844C7.73011 9.55977 7.84783 9.95189 8.08326 10.3048C8.33177 10.6446 8.67839 10.9649 9.1231 11.2655C9.58089 11.5661 10.1302 11.8537 10.7711 12.1281C11.4251 12.4026 12.1576 12.6706 12.9685 12.932C14.4858 13.4156 15.833 13.958 17.0102 14.5593C18.2004 15.1475 19.201 15.8206 20.012 16.5787C20.836 17.3237 21.4573 18.1733 21.8758 19.1275C22.3074 20.0816 22.5233 21.16 22.5233 22.3624C22.5233 23.6434 22.2747 24.7805 21.7777 25.7739C21.2807 26.7673 20.5678 27.6103 19.6392 28.3031C18.7105 28.9827 17.5987 29.499 16.3039 29.8519C15.009 30.2048 13.5637 30.3813 11.9679 30.3813C10.503 30.3813 9.0577 30.1983 7.63201 29.8323C6.2194 29.4533 4.93759 28.8782 3.78658 28.107C2.63556 27.3228 1.71344 26.3229 1.02022 25.1073C0.340072 23.8786 0 22.4213 0 20.7352H6.90609C6.90609 21.5717 7.01726 22.2775 7.23962 22.8526C7.46197 23.4277 7.78897 23.8917 8.2206 24.2446C8.65223 24.5845 9.18196 24.8328 9.80978 24.9896C10.4376 25.1334 11.157 25.2053 11.9679 25.2053C12.8443 25.2053 13.5506 25.0811 14.0868 24.8328C14.6231 24.5714 15.0155 24.2316 15.264 23.8133C15.5125 23.382 15.6368 22.9114 15.6368 22.4017Z" fill="white"></path><path d="M79.1736 24.9422V30.3813H61.9417V24.9422H79.1736ZM64.8683 1.05079V30.3813H56.6504V1.05079H64.8683Z" fill="white"></path><path d="M94.1466 25.7119V9.02567H101.035V31.0703H94.5949L94.1466 25.7119ZM94.7987 21.2297L96.5923 21.1889C96.5923 22.6694 96.4156 24.0413 96.0624 25.3044C95.7091 26.554 95.186 27.6407 94.493 28.5643C93.8137 29.4879 92.9713 30.2078 91.9658 30.7239C90.9739 31.2265 89.8258 31.4778 88.5214 31.4778C87.4345 31.4778 86.4358 31.3283 85.5254 31.0295C84.6287 30.7171 83.8542 30.2349 83.202 29.583C82.5498 28.9174 82.0403 28.0685 81.6735 27.0362C81.3202 25.9904 81.1436 24.7408 81.1436 23.2874V9.02567H88.0119V23.3282C88.0119 23.8171 88.0731 24.2382 88.1953 24.5914C88.3176 24.9445 88.4943 25.2433 88.7252 25.4878C88.9562 25.7187 89.2416 25.8953 89.5812 26.0175C89.9345 26.1262 90.3353 26.1805 90.7837 26.1805C91.8163 26.1805 92.6248 25.9632 93.209 25.5286C93.7933 25.0939 94.2009 24.5031 94.4319 23.756C94.6765 23.009 94.7987 22.1669 94.7987 21.2297Z" fill="white"></path><path d="M114.14 26.1805C114.779 26.1805 115.322 26.0651 115.771 25.8342C116.233 25.5897 116.579 25.2501 116.81 24.8155C117.055 24.3672 117.17 23.8307 117.157 23.2059H123.617C123.631 24.863 123.223 26.3164 122.394 27.566C121.579 28.802 120.465 29.7663 119.052 30.4591C117.653 31.1382 116.07 31.4778 114.303 31.4778C112.578 31.4778 111.069 31.1993 109.779 30.6424C108.488 30.0719 107.408 29.2842 106.538 28.279C105.682 27.2603 105.037 26.0719 104.602 24.7136C104.181 23.3553 103.97 21.8816 103.97 20.2925V19.8239C103.97 18.2347 104.181 16.761 104.602 15.4027C105.037 14.0309 105.682 12.8424 106.538 11.8373C107.408 10.8186 108.481 10.0308 109.758 9.4739C111.049 8.90343 112.55 8.61819 114.262 8.61819C116.097 8.61819 117.714 8.96455 119.113 9.65726C120.526 10.35 121.634 11.3551 122.435 12.6726C123.237 13.9901 123.631 15.5861 123.617 17.4605H117.157C117.17 16.7949 117.068 16.1973 116.851 15.6676C116.633 15.1379 116.294 14.7168 115.832 14.4044C115.383 14.0784 114.806 13.9154 114.099 13.9154C113.393 13.9154 112.822 14.0716 112.387 14.384C111.953 14.6964 111.62 15.1311 111.389 15.6879C111.171 16.2313 111.022 16.8561 110.94 17.5623C110.872 18.2686 110.838 19.0225 110.838 19.8239V20.2925C110.838 21.1074 110.872 21.8748 110.94 22.5947C111.022 23.301 111.178 23.9258 111.409 24.4691C111.64 24.9988 111.973 25.4199 112.408 25.7323C112.843 26.0311 113.42 26.1805 114.14 26.1805Z" fill="white"></path><path d="M133.808 9.02567V31.0703H126.919V9.02567H133.808ZM126.511 3.34134C126.511 2.36339 126.865 1.56202 127.571 0.937216C128.278 0.312416 129.195 1.52588e-05 130.323 1.52588e-05C131.45 1.52588e-05 132.367 0.312416 133.074 0.937216C133.781 1.56202 134.134 2.36339 134.134 3.34134C134.134 4.31929 133.781 5.12067 133.074 5.74547C132.367 6.37027 131.45 6.68267 130.323 6.68267C129.195 6.68267 128.278 6.37027 127.571 5.74547C126.865 5.12067 126.511 4.31929 126.511 3.34134Z" fill="white"></path><path d="M137.191 20.2721V19.8442C137.191 18.2279 137.422 16.7406 137.884 15.3823C138.346 14.0105 139.025 12.822 139.922 11.8169C140.819 10.8118 141.926 10.0308 143.244 9.4739C144.562 8.90343 146.084 8.61819 147.809 8.61819C149.549 8.61819 151.077 8.90343 152.395 9.4739C153.727 10.0308 154.841 10.8118 155.738 11.8169C156.634 12.822 157.314 14.0105 157.776 15.3823C158.238 16.7406 158.469 18.2279 158.469 19.8442V20.2721C158.469 21.8748 158.238 23.3621 157.776 24.734C157.314 26.0922 156.634 27.2807 155.738 28.2994C154.841 29.3045 153.733 30.0855 152.415 30.6424C151.098 31.1993 149.576 31.4778 147.85 31.4778C146.125 31.4778 144.596 31.1993 143.264 30.6424C141.933 30.0855 140.819 29.3045 139.922 28.2994C139.025 27.2807 138.346 26.0922 137.884 24.734C137.422 23.3621 137.191 21.8748 137.191 20.2721ZM144.059 19.8442V20.2721C144.059 21.1006 144.12 21.8748 144.243 22.5947C144.365 23.3146 144.569 23.9462 144.854 24.4895C145.14 25.0192 145.527 25.4335 146.016 25.7323C146.505 26.0311 147.116 26.1805 147.85 26.1805C148.57 26.1805 149.168 26.0311 149.644 25.7323C150.133 25.4335 150.52 25.0192 150.805 24.4895C151.091 23.9462 151.295 23.3146 151.417 22.5947C151.539 21.8748 151.6 21.1006 151.6 20.2721V19.8442C151.6 19.0429 151.539 18.289 151.417 17.5827C151.295 16.8628 151.091 16.2313 150.805 15.6879C150.52 15.1311 150.133 14.6964 149.644 14.384C149.155 14.0716 148.543 13.9154 147.809 13.9154C147.089 13.9154 146.485 14.0716 145.995 14.384C145.52 14.6964 145.14 15.1311 144.854 15.6879C144.569 16.2313 144.365 16.8628 144.243 17.5827C144.12 18.289 144.059 19.0429 144.059 19.8442Z" fill="white"></path><path d="M168.272 13.732V31.0703H161.403V9.02567H167.844L168.272 13.732ZM167.457 19.2941L165.846 19.3349C165.846 17.6506 166.05 16.1498 166.458 14.8322C166.866 13.5011 167.443 12.3738 168.19 11.4502C168.938 10.5266 169.828 9.82704 170.86 9.35165C171.906 8.86268 173.068 8.61819 174.345 8.61819C175.364 8.61819 176.295 8.7676 177.137 9.06642C177.993 9.36524 178.727 9.84742 179.339 10.513C179.964 11.1785 180.439 12.0614 180.765 13.1616C181.105 14.2482 181.275 15.5929 181.275 17.1956V31.0703H174.366V17.1752C174.366 16.2924 174.243 15.62 173.999 15.1582C173.754 14.6828 173.401 14.3569 172.939 14.1803C172.477 14.0037 171.913 13.9154 171.247 13.9154C170.541 13.9154 169.943 14.0512 169.454 14.3229C168.965 14.5945 168.571 14.9749 168.272 15.4638C167.986 15.9392 167.776 16.5029 167.64 17.1549C167.518 17.8068 167.457 18.5199 167.457 19.2941Z" fill="white"></path><path d="M195.766 31.4778C193.972 31.4778 192.369 31.1993 190.956 30.6424C189.543 30.0719 188.347 29.2909 187.369 28.2994C186.404 27.3079 185.663 26.1669 185.147 24.8766C184.644 23.5862 184.393 22.2212 184.393 20.7814V20.0072C184.393 18.3909 184.617 16.8968 185.066 15.525C185.514 14.1395 186.18 12.9307 187.063 11.8984C187.946 10.8661 189.053 10.0647 190.385 9.49427C191.717 8.91022 193.266 8.61819 195.032 8.61819C196.594 8.61819 197.994 8.86947 199.23 9.37203C200.467 9.87458 201.513 10.5945 202.369 11.5317C203.239 12.4689 203.898 13.603 204.346 14.9341C204.808 16.2652 205.039 17.7593 205.039 19.4164V22.2076H187.022V17.9087H198.334V17.379C198.347 16.6455 198.218 16.0207 197.946 15.5046C197.688 14.9884 197.308 14.5945 196.805 14.3229C196.302 14.0512 195.691 13.9154 194.971 13.9154C194.223 13.9154 193.605 14.0784 193.116 14.4044C192.641 14.7304 192.267 15.1786 191.995 15.7491C191.737 16.306 191.554 16.9511 191.445 17.6846C191.336 18.4181 191.282 19.1923 191.282 20.0072V20.7814C191.282 21.5964 191.391 22.3366 191.608 23.0022C191.839 23.6677 192.165 24.2382 192.586 24.7136C193.021 25.1754 193.537 25.5354 194.135 25.7934C194.747 26.0515 195.44 26.1805 196.214 26.1805C197.152 26.1805 198.075 26.004 198.986 25.6508C199.896 25.2977 200.677 24.7136 201.33 23.8986L204.448 27.6067C203.999 28.2451 203.361 28.8631 202.532 29.4607C201.717 30.0584 200.739 30.5473 199.597 30.9277C198.456 31.2944 197.179 31.4778 195.766 31.4778Z" fill="white"></path></svg>